<mxfile host="app.diagrams.net" modified="2024-05-06T22:55:19.019Z" agent="Mozilla/5.0 (Windows NT 10.0; Win64; x64) AppleWebKit/537.36 (KHTML, like Gecko) Chrome/124.0.0.0 Safari/537.36" etag="kVMOoJ0-nyQY7oerjEYv" version="24.3.1" type="github">
  <diagram id="R2lEEEUBdFMjLlhIrx00" name="Page-1">
    <mxGraphModel dx="2470" dy="2525" grid="1" gridSize="10" guides="1" tooltips="1" connect="1" arrows="1" fold="1" page="1" pageScale="1" pageWidth="850" pageHeight="1100" math="0" shadow="0" extFonts="Permanent Marker^https://fonts.googleapis.com/css?family=Permanent+Marker">
      <root>
        <mxCell id="0" />
        <mxCell id="1" parent="0" />
        <mxCell id="ZeTHCQXDInpoZ87TwWve-1" value="" style="rounded=0;whiteSpace=wrap;html=1;" vertex="1" parent="1">
          <mxGeometry y="-1100" width="1700" height="1460" as="geometry" />
        </mxCell>
        <mxCell id="q9KjPtno_19c9KrTRLna-2" value="M" style="edgeStyle=orthogonalEdgeStyle;rounded=0;orthogonalLoop=1;jettySize=auto;html=1;entryX=1;entryY=0.5;entryDx=0;entryDy=0;endArrow=none;endFill=0;fontStyle=1;fontSize=16;" parent="1" source="q9KjPtno_19c9KrTRLna-8" target="q9KjPtno_19c9KrTRLna-26" edge="1">
          <mxGeometry x="0.6667" y="-10" relative="1" as="geometry">
            <mxPoint as="offset" />
          </mxGeometry>
        </mxCell>
        <mxCell id="q9KjPtno_19c9KrTRLna-3" style="edgeStyle=orthogonalEdgeStyle;rounded=0;orthogonalLoop=1;jettySize=auto;html=1;exitX=0.5;exitY=1;exitDx=0;exitDy=0;entryX=0.5;entryY=0;entryDx=0;entryDy=0;" parent="1" source="q9KjPtno_19c9KrTRLna-8" target="q9KjPtno_19c9KrTRLna-17" edge="1">
          <mxGeometry relative="1" as="geometry" />
        </mxCell>
        <mxCell id="q9KjPtno_19c9KrTRLna-4" style="edgeStyle=orthogonalEdgeStyle;rounded=0;orthogonalLoop=1;jettySize=auto;html=1;exitX=0.5;exitY=1;exitDx=0;exitDy=0;entryX=0.5;entryY=0;entryDx=0;entryDy=0;" parent="1" source="q9KjPtno_19c9KrTRLna-8" target="q9KjPtno_19c9KrTRLna-16" edge="1">
          <mxGeometry relative="1" as="geometry">
            <Array as="points">
              <mxPoint x="510" y="190" />
              <mxPoint x="570" y="190" />
            </Array>
          </mxGeometry>
        </mxCell>
        <mxCell id="q9KjPtno_19c9KrTRLna-5" style="edgeStyle=orthogonalEdgeStyle;rounded=0;orthogonalLoop=1;jettySize=auto;html=1;exitX=0.5;exitY=1;exitDx=0;exitDy=0;entryX=0.5;entryY=0;entryDx=0;entryDy=0;" parent="1" source="q9KjPtno_19c9KrTRLna-8" target="q9KjPtno_19c9KrTRLna-18" edge="1">
          <mxGeometry relative="1" as="geometry" />
        </mxCell>
        <mxCell id="q9KjPtno_19c9KrTRLna-6" style="edgeStyle=orthogonalEdgeStyle;rounded=0;orthogonalLoop=1;jettySize=auto;html=1;exitX=0.5;exitY=1;exitDx=0;exitDy=0;entryX=0.5;entryY=0;entryDx=0;entryDy=0;" parent="1" source="q9KjPtno_19c9KrTRLna-8" target="q9KjPtno_19c9KrTRLna-9" edge="1">
          <mxGeometry relative="1" as="geometry">
            <Array as="points">
              <mxPoint x="510" y="190" />
              <mxPoint x="450" y="190" />
            </Array>
          </mxGeometry>
        </mxCell>
        <mxCell id="q9KjPtno_19c9KrTRLna-7" style="edgeStyle=orthogonalEdgeStyle;rounded=0;orthogonalLoop=1;jettySize=auto;html=1;exitX=0.5;exitY=1;exitDx=0;exitDy=0;entryX=0.5;entryY=0;entryDx=0;entryDy=0;" parent="1" source="q9KjPtno_19c9KrTRLna-8" target="q9KjPtno_19c9KrTRLna-10" edge="1">
          <mxGeometry relative="1" as="geometry" />
        </mxCell>
        <mxCell id="q9KjPtno_19c9KrTRLna-8" value="Menu_item" style="whiteSpace=wrap;html=1;align=center;fontStyle=1;fontSize=18;fillColor=#cce5ff;strokeColor=#36393d;" parent="1" vertex="1">
          <mxGeometry x="450" y="90" width="120" height="60" as="geometry" />
        </mxCell>
        <mxCell id="q9KjPtno_19c9KrTRLna-9" value="name" style="ellipse;whiteSpace=wrap;html=1;align=center;" parent="1" vertex="1">
          <mxGeometry x="400" y="270" width="100" height="40" as="geometry" />
        </mxCell>
        <mxCell id="q9KjPtno_19c9KrTRLna-10" value="menu_item_id" style="ellipse;whiteSpace=wrap;html=1;align=center;fontStyle=4;" parent="1" vertex="1">
          <mxGeometry x="340" y="230" width="100" height="40" as="geometry" />
        </mxCell>
        <mxCell id="q9KjPtno_19c9KrTRLna-11" style="edgeStyle=orthogonalEdgeStyle;rounded=0;orthogonalLoop=1;jettySize=auto;html=1;entryX=0.5;entryY=0;entryDx=0;entryDy=0;" parent="1" source="q9KjPtno_19c9KrTRLna-13" target="q9KjPtno_19c9KrTRLna-14" edge="1">
          <mxGeometry relative="1" as="geometry" />
        </mxCell>
        <mxCell id="q9KjPtno_19c9KrTRLna-12" value="N" style="edgeStyle=orthogonalEdgeStyle;rounded=0;orthogonalLoop=1;jettySize=auto;html=1;shape=link;entryX=0.25;entryY=1;entryDx=0;entryDy=0;fontStyle=1;fontSize=16;" parent="1" source="q9KjPtno_19c9KrTRLna-13" target="q9KjPtno_19c9KrTRLna-31" edge="1">
          <mxGeometry x="-0.948" y="20" relative="1" as="geometry">
            <mxPoint x="940" y="60" as="targetPoint" />
            <mxPoint as="offset" />
          </mxGeometry>
        </mxCell>
        <mxCell id="q9KjPtno_19c9KrTRLna-13" value="Contains" style="shape=rhombus;perimeter=rhombusPerimeter;whiteSpace=wrap;html=1;align=center;fontStyle=1;fontSize=16;fillColor=#cdeb8b;strokeColor=#36393d;" parent="1" vertex="1">
          <mxGeometry x="797" y="50" width="120" height="60" as="geometry" />
        </mxCell>
        <mxCell id="q9KjPtno_19c9KrTRLna-14" value="quantity_used" style="ellipse;whiteSpace=wrap;html=1;align=center;" parent="1" vertex="1">
          <mxGeometry x="807" y="135" width="100" height="40" as="geometry" />
        </mxCell>
        <mxCell id="q9KjPtno_19c9KrTRLna-15" value="M" style="shape=link;html=1;rounded=0;entryX=0;entryY=0.5;entryDx=0;entryDy=0;fontStyle=1;fontSize=16;" parent="1" source="q9KjPtno_19c9KrTRLna-8" target="q9KjPtno_19c9KrTRLna-13" edge="1">
          <mxGeometry x="0.9476" y="20" relative="1" as="geometry">
            <mxPoint x="585" y="200" as="sourcePoint" />
            <mxPoint x="735" y="200" as="targetPoint" />
            <mxPoint as="offset" />
            <Array as="points">
              <mxPoint x="710" y="120" />
              <mxPoint x="710" y="80" />
            </Array>
          </mxGeometry>
        </mxCell>
        <mxCell id="q9KjPtno_19c9KrTRLna-16" value="category" style="ellipse;whiteSpace=wrap;html=1;align=center;" parent="1" vertex="1">
          <mxGeometry x="520" y="270" width="100" height="40" as="geometry" />
        </mxCell>
        <mxCell id="q9KjPtno_19c9KrTRLna-17" value="size" style="ellipse;whiteSpace=wrap;html=1;align=center;" parent="1" vertex="1">
          <mxGeometry x="460" y="230" width="100" height="40" as="geometry" />
        </mxCell>
        <mxCell id="q9KjPtno_19c9KrTRLna-18" value="price" style="ellipse;whiteSpace=wrap;html=1;align=center;" parent="1" vertex="1">
          <mxGeometry x="580" y="230" width="100" height="40" as="geometry" />
        </mxCell>
        <mxCell id="q9KjPtno_19c9KrTRLna-19" value="N" style="edgeStyle=orthogonalEdgeStyle;rounded=0;orthogonalLoop=1;jettySize=auto;html=1;exitX=0;exitY=0.5;exitDx=0;exitDy=0;entryX=0.5;entryY=1;entryDx=0;entryDy=0;endArrow=none;endFill=0;shape=link;fontStyle=1;fontSize=16;" parent="1" source="q9KjPtno_19c9KrTRLna-22" target="q9KjPtno_19c9KrTRLna-321" edge="1">
          <mxGeometry x="0.9735" y="-20" relative="1" as="geometry">
            <mxPoint x="690" y="260" as="targetPoint" />
            <Array as="points">
              <mxPoint x="70" y="-20" />
            </Array>
            <mxPoint as="offset" />
          </mxGeometry>
        </mxCell>
        <mxCell id="q9KjPtno_19c9KrTRLna-20" style="edgeStyle=orthogonalEdgeStyle;rounded=0;orthogonalLoop=1;jettySize=auto;html=1;exitX=0.25;exitY=1;exitDx=0;exitDy=0;entryX=1;entryY=0.5;entryDx=0;entryDy=0;" parent="1" source="q9KjPtno_19c9KrTRLna-22" target="q9KjPtno_19c9KrTRLna-23" edge="1">
          <mxGeometry relative="1" as="geometry">
            <Array as="points">
              <mxPoint x="275" y="30" />
            </Array>
          </mxGeometry>
        </mxCell>
        <mxCell id="q9KjPtno_19c9KrTRLna-21" style="edgeStyle=orthogonalEdgeStyle;rounded=0;orthogonalLoop=1;jettySize=auto;html=1;exitX=0.25;exitY=1;exitDx=0;exitDy=0;entryX=1;entryY=0.5;entryDx=0;entryDy=0;" parent="1" source="q9KjPtno_19c9KrTRLna-22" target="q9KjPtno_19c9KrTRLna-24" edge="1">
          <mxGeometry relative="1" as="geometry">
            <Array as="points">
              <mxPoint x="275" y="75" />
            </Array>
          </mxGeometry>
        </mxCell>
        <mxCell id="q9KjPtno_19c9KrTRLna-22" value="Tool" style="whiteSpace=wrap;html=1;align=center;fontStyle=1;fontSize=18;fillColor=#cce5ff;strokeColor=#36393d;" parent="1" vertex="1">
          <mxGeometry x="250" y="-40" width="100" height="40" as="geometry" />
        </mxCell>
        <mxCell id="q9KjPtno_19c9KrTRLna-23" value="tool_name" style="ellipse;whiteSpace=wrap;html=1;align=center;fontStyle=4;" parent="1" vertex="1">
          <mxGeometry x="150" y="10" width="100" height="40" as="geometry" />
        </mxCell>
        <mxCell id="q9KjPtno_19c9KrTRLna-24" value="price" style="ellipse;whiteSpace=wrap;html=1;align=center;" parent="1" vertex="1">
          <mxGeometry x="150" y="55" width="100" height="40" as="geometry" />
        </mxCell>
        <mxCell id="q9KjPtno_19c9KrTRLna-25" value="N" style="edgeStyle=orthogonalEdgeStyle;rounded=0;orthogonalLoop=1;jettySize=auto;html=1;shape=link;entryX=0.75;entryY=1;entryDx=0;entryDy=0;exitX=0.5;exitY=0;exitDx=0;exitDy=0;fontStyle=1;fontSize=16;" parent="1" source="q9KjPtno_19c9KrTRLna-26" target="q9KjPtno_19c9KrTRLna-22" edge="1">
          <mxGeometry x="-0.8571" y="-10" relative="1" as="geometry">
            <Array as="points" />
            <mxPoint x="325" y="70" as="sourcePoint" />
            <mxPoint x="325" y="-40" as="targetPoint" />
            <mxPoint as="offset" />
          </mxGeometry>
        </mxCell>
        <mxCell id="q9KjPtno_19c9KrTRLna-26" value="Made&lt;span style=&quot;font-size: 12px; font-weight: 400;&quot;&gt;_&lt;/span&gt;with" style="shape=rhombus;perimeter=rhombusPerimeter;whiteSpace=wrap;html=1;align=center;fontStyle=1;fontSize=16;fillColor=#cdeb8b;strokeColor=#36393d;" parent="1" vertex="1">
          <mxGeometry x="270" y="90" width="110" height="60" as="geometry" />
        </mxCell>
        <mxCell id="q9KjPtno_19c9KrTRLna-27" style="edgeStyle=orthogonalEdgeStyle;rounded=0;orthogonalLoop=1;jettySize=auto;html=1;entryX=0.5;entryY=1;entryDx=0;entryDy=0;" parent="1" source="q9KjPtno_19c9KrTRLna-31" target="q9KjPtno_19c9KrTRLna-57" edge="1">
          <mxGeometry relative="1" as="geometry">
            <Array as="points">
              <mxPoint x="1015" y="-50" />
              <mxPoint x="1067" y="-50" />
            </Array>
          </mxGeometry>
        </mxCell>
        <mxCell id="q9KjPtno_19c9KrTRLna-28" style="edgeStyle=orthogonalEdgeStyle;rounded=0;orthogonalLoop=1;jettySize=auto;html=1;entryX=0.5;entryY=1;entryDx=0;entryDy=0;" parent="1" source="q9KjPtno_19c9KrTRLna-31" target="q9KjPtno_19c9KrTRLna-46" edge="1">
          <mxGeometry relative="1" as="geometry">
            <Array as="points">
              <mxPoint x="1015" y="-50" />
              <mxPoint x="960" y="-50" />
            </Array>
          </mxGeometry>
        </mxCell>
        <mxCell id="q9KjPtno_19c9KrTRLna-29" value="M" style="edgeStyle=orthogonalEdgeStyle;rounded=0;orthogonalLoop=1;jettySize=auto;html=1;exitX=0;exitY=0.5;exitDx=0;exitDy=0;entryX=1;entryY=0.5;entryDx=0;entryDy=0;endArrow=none;endFill=0;fontStyle=1;fontSize=16;" parent="1" source="q9KjPtno_19c9KrTRLna-31" target="q9KjPtno_19c9KrTRLna-292" edge="1">
          <mxGeometry x="1" y="-20" relative="1" as="geometry">
            <mxPoint as="offset" />
          </mxGeometry>
        </mxCell>
        <mxCell id="q9KjPtno_19c9KrTRLna-30" value="N" style="edgeStyle=orthogonalEdgeStyle;rounded=0;orthogonalLoop=1;jettySize=auto;html=1;exitX=0.75;exitY=1;exitDx=0;exitDy=0;entryX=0;entryY=0.5;entryDx=0;entryDy=0;endArrow=none;endFill=0;fontStyle=1;fontSize=16;" parent="1" source="q9KjPtno_19c9KrTRLna-31" target="q9KjPtno_19c9KrTRLna-61" edge="1">
          <mxGeometry x="0.809" y="-15" relative="1" as="geometry">
            <mxPoint as="offset" />
          </mxGeometry>
        </mxCell>
        <mxCell id="q9KjPtno_19c9KrTRLna-31" value="Ingredient" style="whiteSpace=wrap;html=1;align=center;fontStyle=1;fontSize=17;fillColor=#cce5ff;strokeColor=#36393d;" parent="1" vertex="1">
          <mxGeometry x="955" y="-30" width="120" height="60" as="geometry" />
        </mxCell>
        <mxCell id="q9KjPtno_19c9KrTRLna-33" style="edgeStyle=orthogonalEdgeStyle;rounded=0;orthogonalLoop=1;jettySize=auto;html=1;entryX=0;entryY=0.5;entryDx=0;entryDy=0;exitX=1;exitY=0.5;exitDx=0;exitDy=0;" parent="1" source="q9KjPtno_19c9KrTRLna-37" target="q9KjPtno_19c9KrTRLna-47" edge="1">
          <mxGeometry relative="1" as="geometry">
            <Array as="points">
              <mxPoint x="1488" />
              <mxPoint x="1488" y="-45" />
            </Array>
          </mxGeometry>
        </mxCell>
        <mxCell id="q9KjPtno_19c9KrTRLna-34" style="edgeStyle=orthogonalEdgeStyle;rounded=0;orthogonalLoop=1;jettySize=auto;html=1;entryX=0;entryY=0.5;entryDx=0;entryDy=0;exitX=1;exitY=0.5;exitDx=0;exitDy=0;" parent="1" source="q9KjPtno_19c9KrTRLna-37" target="jkEgJ6Tg0IuruKc0SyGw-10" edge="1">
          <mxGeometry relative="1" as="geometry">
            <Array as="points">
              <mxPoint x="1488" />
              <mxPoint x="1488" y="90" />
            </Array>
            <mxPoint x="1508.0000000000118" y="65" as="targetPoint" />
          </mxGeometry>
        </mxCell>
        <mxCell id="q9KjPtno_19c9KrTRLna-35" style="edgeStyle=orthogonalEdgeStyle;rounded=0;orthogonalLoop=1;jettySize=auto;html=1;entryX=0;entryY=0.5;entryDx=0;entryDy=0;exitX=1;exitY=0.5;exitDx=0;exitDy=0;" parent="1" source="q9KjPtno_19c9KrTRLna-37" target="q9KjPtno_19c9KrTRLna-52" edge="1">
          <mxGeometry relative="1" as="geometry">
            <Array as="points">
              <mxPoint x="1508" />
            </Array>
          </mxGeometry>
        </mxCell>
        <mxCell id="q9KjPtno_19c9KrTRLna-36" style="edgeStyle=orthogonalEdgeStyle;rounded=0;orthogonalLoop=1;jettySize=auto;html=1;entryX=0;entryY=0.5;entryDx=0;entryDy=0;exitX=1;exitY=0.5;exitDx=0;exitDy=0;" parent="1" source="q9KjPtno_19c9KrTRLna-37" target="q9KjPtno_19c9KrTRLna-51" edge="1">
          <mxGeometry relative="1" as="geometry">
            <Array as="points">
              <mxPoint x="1488" />
              <mxPoint x="1488" y="45" />
            </Array>
            <mxPoint x="1592.9999999999995" y="25" as="targetPoint" />
          </mxGeometry>
        </mxCell>
        <mxCell id="q9KjPtno_19c9KrTRLna-37" value="Supplier" style="whiteSpace=wrap;html=1;align=center;fontStyle=1;fontSize=18;fillColor=#cce5ff;strokeColor=#36393d;" parent="1" vertex="1">
          <mxGeometry x="1373" y="-20" width="100" height="40" as="geometry" />
        </mxCell>
        <mxCell id="q9KjPtno_19c9KrTRLna-38" style="edgeStyle=orthogonalEdgeStyle;rounded=0;orthogonalLoop=1;jettySize=auto;html=1;entryX=0.5;entryY=0;entryDx=0;entryDy=0;exitX=0.5;exitY=1;exitDx=0;exitDy=0;" parent="1" source="q9KjPtno_19c9KrTRLna-45" target="q9KjPtno_19c9KrTRLna-48" edge="1">
          <mxGeometry relative="1" as="geometry">
            <Array as="points">
              <mxPoint x="1150" y="240" />
              <mxPoint x="1030" y="240" />
            </Array>
            <mxPoint x="1030" y="250" as="targetPoint" />
          </mxGeometry>
        </mxCell>
        <mxCell id="q9KjPtno_19c9KrTRLna-39" style="edgeStyle=orthogonalEdgeStyle;rounded=0;orthogonalLoop=1;jettySize=auto;html=1;entryX=0.5;entryY=0;entryDx=0;entryDy=0;exitX=0.5;exitY=1;exitDx=0;exitDy=0;" parent="1" source="q9KjPtno_19c9KrTRLna-45" target="q9KjPtno_19c9KrTRLna-50" edge="1">
          <mxGeometry relative="1" as="geometry">
            <Array as="points">
              <mxPoint x="1150" y="240" />
              <mxPoint x="1090" y="240" />
            </Array>
          </mxGeometry>
        </mxCell>
        <mxCell id="q9KjPtno_19c9KrTRLna-40" style="edgeStyle=orthogonalEdgeStyle;rounded=0;orthogonalLoop=1;jettySize=auto;html=1;entryX=0.5;entryY=0;entryDx=0;entryDy=0;exitX=0.5;exitY=1;exitDx=0;exitDy=0;" parent="1" source="q9KjPtno_19c9KrTRLna-45" target="q9KjPtno_19c9KrTRLna-49" edge="1">
          <mxGeometry relative="1" as="geometry">
            <Array as="points">
              <mxPoint x="1150" y="260" />
            </Array>
          </mxGeometry>
        </mxCell>
        <mxCell id="q9KjPtno_19c9KrTRLna-41" style="edgeStyle=orthogonalEdgeStyle;rounded=0;orthogonalLoop=1;jettySize=auto;html=1;entryX=0.5;entryY=0;entryDx=0;entryDy=0;exitX=0.5;exitY=1;exitDx=0;exitDy=0;" parent="1" source="q9KjPtno_19c9KrTRLna-45" target="q9KjPtno_19c9KrTRLna-55" edge="1">
          <mxGeometry relative="1" as="geometry">
            <Array as="points">
              <mxPoint x="1150" y="240" />
              <mxPoint x="1265" y="240" />
            </Array>
          </mxGeometry>
        </mxCell>
        <mxCell id="q9KjPtno_19c9KrTRLna-42" style="edgeStyle=orthogonalEdgeStyle;rounded=0;orthogonalLoop=1;jettySize=auto;html=1;entryX=0.5;entryY=0;entryDx=0;entryDy=0;exitX=0.5;exitY=1;exitDx=0;exitDy=0;" parent="1" source="q9KjPtno_19c9KrTRLna-45" target="q9KjPtno_19c9KrTRLna-56" edge="1">
          <mxGeometry relative="1" as="geometry">
            <Array as="points">
              <mxPoint x="1150" y="240" />
              <mxPoint x="1205" y="240" />
            </Array>
          </mxGeometry>
        </mxCell>
        <mxCell id="q9KjPtno_19c9KrTRLna-43" value="M" style="edgeStyle=orthogonalEdgeStyle;rounded=0;orthogonalLoop=1;jettySize=auto;html=1;exitX=0;exitY=0.5;exitDx=0;exitDy=0;entryX=1;entryY=0.5;entryDx=0;entryDy=0;endArrow=none;endFill=0;shape=link;fontStyle=1;fontSize=16;" parent="1" source="q9KjPtno_19c9KrTRLna-45" target="q9KjPtno_19c9KrTRLna-294" edge="1">
          <mxGeometry x="1" y="-20" relative="1" as="geometry">
            <mxPoint as="offset" />
          </mxGeometry>
        </mxCell>
        <mxCell id="q9KjPtno_19c9KrTRLna-44" value="M" style="edgeStyle=orthogonalEdgeStyle;rounded=0;orthogonalLoop=1;jettySize=auto;html=1;exitX=1;exitY=0.5;exitDx=0;exitDy=0;entryX=0.5;entryY=1;entryDx=0;entryDy=0;shape=link;fontStyle=1;fontSize=16;" parent="1" source="q9KjPtno_19c9KrTRLna-45" target="q9KjPtno_19c9KrTRLna-62" edge="1">
          <mxGeometry x="0.9293" y="13" relative="1" as="geometry">
            <mxPoint as="offset" />
          </mxGeometry>
        </mxCell>
        <mxCell id="q9KjPtno_19c9KrTRLna-45" value="Shipment" style="whiteSpace=wrap;html=1;align=center;fontStyle=1;fontSize=18;fillColor=#cce5ff;strokeColor=#36393d;" parent="1" vertex="1">
          <mxGeometry x="1100" y="180" width="100" height="40" as="geometry" />
        </mxCell>
        <mxCell id="q9KjPtno_19c9KrTRLna-46" value="ingredient_name" style="ellipse;whiteSpace=wrap;html=1;align=center;fontStyle=4;" parent="1" vertex="1">
          <mxGeometry x="910" y="-110" width="100" height="40" as="geometry" />
        </mxCell>
        <mxCell id="q9KjPtno_19c9KrTRLna-47" value="supplier_name" style="ellipse;whiteSpace=wrap;html=1;align=center;fontStyle=4;" parent="1" vertex="1">
          <mxGeometry x="1508" y="-65" width="100" height="40" as="geometry" />
        </mxCell>
        <mxCell id="q9KjPtno_19c9KrTRLna-48" value="shipment_id" style="ellipse;whiteSpace=wrap;html=1;align=center;fontStyle=4;" parent="1" vertex="1">
          <mxGeometry x="980" y="260" width="100" height="40" as="geometry" />
        </mxCell>
        <mxCell id="q9KjPtno_19c9KrTRLna-49" value="status" style="ellipse;whiteSpace=wrap;html=1;align=center;" parent="1" vertex="1">
          <mxGeometry x="1100" y="260" width="100" height="40" as="geometry" />
        </mxCell>
        <mxCell id="q9KjPtno_19c9KrTRLna-50" value="date_and_time" style="ellipse;whiteSpace=wrap;html=1;align=center;" parent="1" vertex="1">
          <mxGeometry x="1040" y="300" width="100" height="40" as="geometry" />
        </mxCell>
        <mxCell id="q9KjPtno_19c9KrTRLna-51" value="is_active" style="ellipse;whiteSpace=wrap;html=1;align=center;" parent="1" vertex="1">
          <mxGeometry x="1508" y="25" width="100" height="40" as="geometry" />
        </mxCell>
        <mxCell id="q9KjPtno_19c9KrTRLna-52" value="location" style="ellipse;whiteSpace=wrap;html=1;align=center;" parent="1" vertex="1">
          <mxGeometry x="1508" y="-20" width="100" height="40" as="geometry" />
        </mxCell>
        <mxCell id="q9KjPtno_19c9KrTRLna-55" value="total_price" style="ellipse;whiteSpace=wrap;html=1;align=center;dashed=1;" parent="1" vertex="1">
          <mxGeometry x="1215" y="260" width="100" height="40" as="geometry" />
        </mxCell>
        <mxCell id="q9KjPtno_19c9KrTRLna-56" value="number_of_items" style="ellipse;whiteSpace=wrap;html=1;align=center;dashed=1;" parent="1" vertex="1">
          <mxGeometry x="1155" y="300" width="101" height="40" as="geometry" />
        </mxCell>
        <mxCell id="q9KjPtno_19c9KrTRLna-57" value="total_quantity" style="ellipse;whiteSpace=wrap;html=1;align=center;dashed=1;" parent="1" vertex="1">
          <mxGeometry x="1017" y="-110" width="100" height="40" as="geometry" />
        </mxCell>
        <mxCell id="q9KjPtno_19c9KrTRLna-58" style="edgeStyle=orthogonalEdgeStyle;rounded=0;orthogonalLoop=1;jettySize=auto;html=1;entryX=0;entryY=0.5;entryDx=0;entryDy=0;exitX=1;exitY=0.5;exitDx=0;exitDy=0;" parent="1" source="q9KjPtno_19c9KrTRLna-61" target="q9KjPtno_19c9KrTRLna-63" edge="1">
          <mxGeometry relative="1" as="geometry">
            <Array as="points">
              <mxPoint x="1222" y="100" />
              <mxPoint x="1222" y="120" />
            </Array>
          </mxGeometry>
        </mxCell>
        <mxCell id="q9KjPtno_19c9KrTRLna-59" style="edgeStyle=orthogonalEdgeStyle;rounded=0;orthogonalLoop=1;jettySize=auto;html=1;entryX=0;entryY=0.5;entryDx=0;entryDy=0;exitX=1;exitY=0.5;exitDx=0;exitDy=0;" parent="1" source="q9KjPtno_19c9KrTRLna-61" target="q9KjPtno_19c9KrTRLna-70" edge="1">
          <mxGeometry relative="1" as="geometry">
            <Array as="points">
              <mxPoint x="1222" y="100" />
              <mxPoint x="1222" y="75" />
            </Array>
          </mxGeometry>
        </mxCell>
        <mxCell id="q9KjPtno_19c9KrTRLna-60" value="M" style="edgeStyle=orthogonalEdgeStyle;rounded=0;orthogonalLoop=1;jettySize=auto;html=1;exitX=0.5;exitY=1;exitDx=0;exitDy=0;entryX=0.5;entryY=0;entryDx=0;entryDy=0;shape=link;fontStyle=1;fontSize=16;" parent="1" source="q9KjPtno_19c9KrTRLna-61" target="q9KjPtno_19c9KrTRLna-45" edge="1">
          <mxGeometry x="-0.8471" y="-19" relative="1" as="geometry">
            <mxPoint as="offset" />
          </mxGeometry>
        </mxCell>
        <mxCell id="q9KjPtno_19c9KrTRLna-61" value="Supplied&lt;span style=&quot;font-size: 12px; font-weight: 400;&quot;&gt;_&lt;/span&gt;in" style="shape=rhombus;perimeter=rhombusPerimeter;whiteSpace=wrap;html=1;align=center;fontStyle=1;fontSize=16;fillColor=#cdeb8b;strokeColor=#36393d;" parent="1" vertex="1">
          <mxGeometry x="1089.5" y="70" width="120" height="60" as="geometry" />
        </mxCell>
        <mxCell id="q9KjPtno_19c9KrTRLna-62" value="Ships" style="shape=rhombus;perimeter=rhombusPerimeter;whiteSpace=wrap;html=1;align=center;fontStyle=1;fontSize=16;fillColor=#cdeb8b;strokeColor=#36393d;" parent="1" vertex="1">
          <mxGeometry x="1363" y="80" width="120" height="60" as="geometry" />
        </mxCell>
        <mxCell id="q9KjPtno_19c9KrTRLna-63" value="price" style="ellipse;whiteSpace=wrap;html=1;align=center;" parent="1" vertex="1">
          <mxGeometry x="1241.5" y="100" width="100" height="40" as="geometry" />
        </mxCell>
        <mxCell id="q9KjPtno_19c9KrTRLna-64" value="1" style="endArrow=none;html=1;rounded=0;exitX=0.5;exitY=1;exitDx=0;exitDy=0;fontStyle=1;fontSize=16;entryX=0.5;entryY=0;entryDx=0;entryDy=0;" parent="1" source="q9KjPtno_19c9KrTRLna-37" target="q9KjPtno_19c9KrTRLna-62" edge="1">
          <mxGeometry x="0.7428" y="-13" relative="1" as="geometry">
            <mxPoint x="1353" y="65" as="sourcePoint" />
            <mxPoint x="1421" y="85" as="targetPoint" />
            <mxPoint as="offset" />
          </mxGeometry>
        </mxCell>
        <mxCell id="jkEgJ6Tg0IuruKc0SyGw-80" style="edgeStyle=orthogonalEdgeStyle;rounded=0;orthogonalLoop=1;jettySize=auto;html=1;exitX=0.5;exitY=0;exitDx=0;exitDy=0;entryX=0.5;entryY=1;entryDx=0;entryDy=0;" parent="1" source="q9KjPtno_19c9KrTRLna-67" target="q9KjPtno_19c9KrTRLna-338" edge="1">
          <mxGeometry relative="1" as="geometry" />
        </mxCell>
        <mxCell id="jkEgJ6Tg0IuruKc0SyGw-81" style="edgeStyle=orthogonalEdgeStyle;rounded=0;orthogonalLoop=1;jettySize=auto;html=1;exitX=0.5;exitY=0;exitDx=0;exitDy=0;entryX=0.5;entryY=1;entryDx=0;entryDy=0;" parent="1" source="q9KjPtno_19c9KrTRLna-67" target="q9KjPtno_19c9KrTRLna-337" edge="1">
          <mxGeometry relative="1" as="geometry" />
        </mxCell>
        <mxCell id="q9KjPtno_19c9KrTRLna-67" value="Sells" style="shape=rhombus;perimeter=rhombusPerimeter;whiteSpace=wrap;html=1;align=center;fontStyle=1;fontSize=16;fillColor=#cdeb8b;strokeColor=#36393d;" parent="1" vertex="1">
          <mxGeometry x="1180" y="-30" width="120" height="60" as="geometry" />
        </mxCell>
        <mxCell id="q9KjPtno_19c9KrTRLna-68" value="N" style="shape=link;html=1;rounded=0;entryX=0;entryY=0.5;entryDx=0;entryDy=0;exitX=1;exitY=0.5;exitDx=0;exitDy=0;fontStyle=1;fontSize=16;" parent="1" source="q9KjPtno_19c9KrTRLna-31" target="q9KjPtno_19c9KrTRLna-67" edge="1">
          <mxGeometry x="1" y="-15" relative="1" as="geometry">
            <mxPoint x="1090" as="sourcePoint" />
            <mxPoint x="1155" as="targetPoint" />
            <mxPoint as="offset" />
            <Array as="points">
              <mxPoint x="1130" />
            </Array>
          </mxGeometry>
        </mxCell>
        <mxCell id="q9KjPtno_19c9KrTRLna-69" value="M" style="shape=link;html=1;rounded=0;exitX=0;exitY=0.5;exitDx=0;exitDy=0;entryX=1;entryY=0.5;entryDx=0;entryDy=0;fontStyle=1;fontSize=16;" parent="1" source="q9KjPtno_19c9KrTRLna-37" target="q9KjPtno_19c9KrTRLna-67" edge="1">
          <mxGeometry x="1" y="15" relative="1" as="geometry">
            <mxPoint x="1135" y="70" as="sourcePoint" />
            <mxPoint x="1265" y="-20" as="targetPoint" />
            <mxPoint as="offset" />
          </mxGeometry>
        </mxCell>
        <mxCell id="q9KjPtno_19c9KrTRLna-70" value="&lt;div&gt;&lt;span style=&quot;background-color: initial;&quot;&gt;quantity&lt;/span&gt;&lt;br&gt;&lt;/div&gt;" style="ellipse;whiteSpace=wrap;html=1;align=center;" parent="1" vertex="1">
          <mxGeometry x="1241.5" y="55" width="100" height="40" as="geometry" />
        </mxCell>
        <mxCell id="q9KjPtno_19c9KrTRLna-71" style="edgeStyle=orthogonalEdgeStyle;rounded=0;orthogonalLoop=1;jettySize=auto;html=1;exitX=0.5;exitY=1;exitDx=0;exitDy=0;entryX=0.5;entryY=0;entryDx=0;entryDy=0;shape=link;" parent="1" source="q9KjPtno_19c9KrTRLna-81" target="q9KjPtno_19c9KrTRLna-101" edge="1">
          <mxGeometry relative="1" as="geometry" />
        </mxCell>
        <mxCell id="q9KjPtno_19c9KrTRLna-72" value="M" style="edgeStyle=orthogonalEdgeStyle;rounded=0;orthogonalLoop=1;jettySize=auto;html=1;exitX=0;exitY=0.5;exitDx=0;exitDy=0;entryX=1;entryY=0.5;entryDx=0;entryDy=0;shape=link;fontStyle=1;fontSize=16;" parent="1" source="q9KjPtno_19c9KrTRLna-81" target="q9KjPtno_19c9KrTRLna-301" edge="1">
          <mxGeometry x="1" y="-20" relative="1" as="geometry">
            <mxPoint as="offset" />
          </mxGeometry>
        </mxCell>
        <mxCell id="q9KjPtno_19c9KrTRLna-73" style="edgeStyle=orthogonalEdgeStyle;rounded=0;orthogonalLoop=1;jettySize=auto;html=1;exitX=1;exitY=0.5;exitDx=0;exitDy=0;entryX=0;entryY=0.5;entryDx=0;entryDy=0;" parent="1" source="q9KjPtno_19c9KrTRLna-81" target="q9KjPtno_19c9KrTRLna-84" edge="1">
          <mxGeometry relative="1" as="geometry">
            <Array as="points">
              <mxPoint x="1220" y="-970" />
              <mxPoint x="1220" y="-1040" />
            </Array>
          </mxGeometry>
        </mxCell>
        <mxCell id="q9KjPtno_19c9KrTRLna-74" style="edgeStyle=orthogonalEdgeStyle;rounded=0;orthogonalLoop=1;jettySize=auto;html=1;exitX=1;exitY=0.5;exitDx=0;exitDy=0;entryX=0;entryY=0.5;entryDx=0;entryDy=0;" parent="1" source="q9KjPtno_19c9KrTRLna-81" target="q9KjPtno_19c9KrTRLna-86" edge="1">
          <mxGeometry relative="1" as="geometry">
            <Array as="points">
              <mxPoint x="1220" y="-970" />
              <mxPoint x="1220" y="-1070" />
            </Array>
          </mxGeometry>
        </mxCell>
        <mxCell id="q9KjPtno_19c9KrTRLna-75" style="edgeStyle=orthogonalEdgeStyle;rounded=0;orthogonalLoop=1;jettySize=auto;html=1;exitX=1;exitY=0.5;exitDx=0;exitDy=0;entryX=0;entryY=0.5;entryDx=0;entryDy=0;" parent="1" source="q9KjPtno_19c9KrTRLna-81" target="q9KjPtno_19c9KrTRLna-85" edge="1">
          <mxGeometry relative="1" as="geometry">
            <Array as="points">
              <mxPoint x="1220" y="-970" />
              <mxPoint x="1220" y="-950" />
            </Array>
          </mxGeometry>
        </mxCell>
        <mxCell id="q9KjPtno_19c9KrTRLna-76" style="edgeStyle=orthogonalEdgeStyle;rounded=0;orthogonalLoop=1;jettySize=auto;html=1;exitX=1;exitY=0.5;exitDx=0;exitDy=0;entryX=0;entryY=0.5;entryDx=0;entryDy=0;" parent="1" source="q9KjPtno_19c9KrTRLna-81" target="q9KjPtno_19c9KrTRLna-336" edge="1">
          <mxGeometry relative="1" as="geometry">
            <Array as="points">
              <mxPoint x="1220" y="-970" />
              <mxPoint x="1220" y="-920" />
            </Array>
          </mxGeometry>
        </mxCell>
        <mxCell id="q9KjPtno_19c9KrTRLna-77" style="edgeStyle=orthogonalEdgeStyle;rounded=0;orthogonalLoop=1;jettySize=auto;html=1;exitX=1;exitY=0.5;exitDx=0;exitDy=0;entryX=0;entryY=0.5;entryDx=0;entryDy=0;" parent="1" source="q9KjPtno_19c9KrTRLna-81" target="q9KjPtno_19c9KrTRLna-351" edge="1">
          <mxGeometry relative="1" as="geometry">
            <Array as="points">
              <mxPoint x="1220" y="-970" />
              <mxPoint x="1220" y="-1010" />
            </Array>
          </mxGeometry>
        </mxCell>
        <mxCell id="q9KjPtno_19c9KrTRLna-78" style="edgeStyle=orthogonalEdgeStyle;rounded=0;orthogonalLoop=1;jettySize=auto;html=1;exitX=1;exitY=0.5;exitDx=0;exitDy=0;entryX=0;entryY=0.5;entryDx=0;entryDy=0;" parent="1" source="q9KjPtno_19c9KrTRLna-81" target="q9KjPtno_19c9KrTRLna-352" edge="1">
          <mxGeometry relative="1" as="geometry">
            <Array as="points">
              <mxPoint x="1220" y="-970" />
              <mxPoint x="1220" y="-980" />
            </Array>
          </mxGeometry>
        </mxCell>
        <mxCell id="q9KjPtno_19c9KrTRLna-79" style="edgeStyle=orthogonalEdgeStyle;rounded=0;orthogonalLoop=1;jettySize=auto;html=1;exitX=1;exitY=0.5;exitDx=0;exitDy=0;entryX=0;entryY=0.5;entryDx=0;entryDy=0;" parent="1" source="q9KjPtno_19c9KrTRLna-81" target="q9KjPtno_19c9KrTRLna-354" edge="1">
          <mxGeometry relative="1" as="geometry">
            <Array as="points">
              <mxPoint x="1220" y="-970" />
              <mxPoint x="1220" y="-890" />
            </Array>
          </mxGeometry>
        </mxCell>
        <mxCell id="q9KjPtno_19c9KrTRLna-80" style="edgeStyle=orthogonalEdgeStyle;rounded=0;orthogonalLoop=1;jettySize=auto;html=1;exitX=1;exitY=0.5;exitDx=0;exitDy=0;entryX=0;entryY=0.5;entryDx=0;entryDy=0;" parent="1" source="q9KjPtno_19c9KrTRLna-81" target="q9KjPtno_19c9KrTRLna-353" edge="1">
          <mxGeometry relative="1" as="geometry">
            <Array as="points">
              <mxPoint x="1220" y="-970" />
              <mxPoint x="1220" y="-890" />
              <mxPoint x="1440" y="-890" />
              <mxPoint x="1440" y="-950" />
            </Array>
          </mxGeometry>
        </mxCell>
        <mxCell id="q9KjPtno_19c9KrTRLna-81" value="Employee" style="whiteSpace=wrap;html=1;align=center;fontStyle=1;fontSize=18;fillColor=#cce5ff;strokeColor=#36393d;" parent="1" vertex="1">
          <mxGeometry x="1100" y="-990" width="100" height="40" as="geometry" />
        </mxCell>
        <mxCell id="q9KjPtno_19c9KrTRLna-82" style="edgeStyle=orthogonalEdgeStyle;rounded=0;orthogonalLoop=1;jettySize=auto;html=1;exitX=1;exitY=0.5;exitDx=0;exitDy=0;entryX=0;entryY=0.5;entryDx=0;entryDy=0;" parent="1" source="q9KjPtno_19c9KrTRLna-84" target="q9KjPtno_19c9KrTRLna-348" edge="1">
          <mxGeometry relative="1" as="geometry">
            <Array as="points">
              <mxPoint x="1438.5" y="-1040" />
              <mxPoint x="1438.5" y="-1060" />
            </Array>
          </mxGeometry>
        </mxCell>
        <mxCell id="q9KjPtno_19c9KrTRLna-83" style="edgeStyle=orthogonalEdgeStyle;rounded=0;orthogonalLoop=1;jettySize=auto;html=1;exitX=1;exitY=0.5;exitDx=0;exitDy=0;entryX=0;entryY=0.5;entryDx=0;entryDy=0;" parent="1" source="q9KjPtno_19c9KrTRLna-84" target="q9KjPtno_19c9KrTRLna-347" edge="1">
          <mxGeometry relative="1" as="geometry">
            <Array as="points">
              <mxPoint x="1438.5" y="-1040" />
              <mxPoint x="1438.5" y="-1010" />
            </Array>
          </mxGeometry>
        </mxCell>
        <mxCell id="q9KjPtno_19c9KrTRLna-84" value="name" style="ellipse;whiteSpace=wrap;html=1;align=center;" parent="1" vertex="1">
          <mxGeometry x="1330" y="-1060" width="100" height="40" as="geometry" />
        </mxCell>
        <mxCell id="q9KjPtno_19c9KrTRLna-85" value="date_of_birth" style="ellipse;whiteSpace=wrap;html=1;align=center;" parent="1" vertex="1">
          <mxGeometry x="1240" y="-970" width="100" height="40" as="geometry" />
        </mxCell>
        <mxCell id="q9KjPtno_19c9KrTRLna-86" value="employee_ssn" style="ellipse;whiteSpace=wrap;html=1;align=center;fontStyle=4;" parent="1" vertex="1">
          <mxGeometry x="1240" y="-1090" width="100" height="40" as="geometry" />
        </mxCell>
        <mxCell id="q9KjPtno_19c9KrTRLna-87" style="edgeStyle=orthogonalEdgeStyle;rounded=0;orthogonalLoop=1;jettySize=auto;html=1;exitX=0.5;exitY=1;exitDx=0;exitDy=0;entryX=0.5;entryY=0;entryDx=0;entryDy=0;" parent="1" target="q9KjPtno_19c9KrTRLna-88" edge="1">
          <mxGeometry relative="1" as="geometry">
            <mxPoint x="1370" y="-781" as="sourcePoint" />
            <Array as="points">
              <mxPoint x="1370" y="-761" />
              <mxPoint x="1360" y="-761" />
            </Array>
          </mxGeometry>
        </mxCell>
        <mxCell id="q9KjPtno_19c9KrTRLna-88" value="bike_type" style="ellipse;whiteSpace=wrap;html=1;align=center;" parent="1" vertex="1">
          <mxGeometry x="1310" y="-741" width="100" height="40" as="geometry" />
        </mxCell>
        <mxCell id="q9KjPtno_19c9KrTRLna-89" value="M" style="edgeStyle=orthogonalEdgeStyle;rounded=0;orthogonalLoop=1;jettySize=auto;html=1;exitX=0.5;exitY=1;exitDx=0;exitDy=0;entryX=1;entryY=0.5;entryDx=0;entryDy=0;shape=link;fontStyle=1;fontSize=16;" parent="1" source="q9KjPtno_19c9KrTRLna-92" target="q9KjPtno_19c9KrTRLna-321" edge="1">
          <mxGeometry x="1" y="20" relative="1" as="geometry">
            <mxPoint as="offset" />
            <Array as="points">
              <mxPoint x="1090" y="-620" />
            </Array>
          </mxGeometry>
        </mxCell>
        <mxCell id="q9KjPtno_19c9KrTRLna-90" style="edgeStyle=orthogonalEdgeStyle;rounded=0;orthogonalLoop=1;jettySize=auto;html=1;exitX=0.25;exitY=1;exitDx=0;exitDy=0;entryX=1;entryY=0.5;entryDx=0;entryDy=0;" parent="1" source="q9KjPtno_19c9KrTRLna-92" target="q9KjPtno_19c9KrTRLna-356" edge="1">
          <mxGeometry relative="1" as="geometry">
            <Array as="points">
              <mxPoint x="1065" y="-686" />
            </Array>
          </mxGeometry>
        </mxCell>
        <mxCell id="q9KjPtno_19c9KrTRLna-91" style="edgeStyle=orthogonalEdgeStyle;rounded=0;orthogonalLoop=1;jettySize=auto;html=1;exitX=0.25;exitY=1;exitDx=0;exitDy=0;entryX=1;entryY=0.5;entryDx=0;entryDy=0;" parent="1" source="q9KjPtno_19c9KrTRLna-92" target="q9KjPtno_19c9KrTRLna-355" edge="1">
          <mxGeometry relative="1" as="geometry">
            <Array as="points">
              <mxPoint x="1065" y="-656" />
            </Array>
          </mxGeometry>
        </mxCell>
        <mxCell id="q9KjPtno_19c9KrTRLna-92" value="Chef" style="whiteSpace=wrap;html=1;align=center;fontStyle=1;fontSize=18;fillColor=#cce5ff;strokeColor=#36393d;" parent="1" vertex="1">
          <mxGeometry x="1040" y="-821" width="100" height="40" as="geometry" />
        </mxCell>
        <mxCell id="q9KjPtno_19c9KrTRLna-93" value="1" style="edgeStyle=orthogonalEdgeStyle;rounded=0;orthogonalLoop=1;jettySize=auto;html=1;entryX=0;entryY=0.5;entryDx=0;entryDy=0;endArrow=none;endFill=0;fontStyle=1;fontSize=16;exitX=1;exitY=0.5;exitDx=0;exitDy=0;" parent="1" source="q9KjPtno_19c9KrTRLna-96" target="q9KjPtno_19c9KrTRLna-323" edge="1">
          <mxGeometry x="1" y="-10" relative="1" as="geometry">
            <mxPoint as="offset" />
            <mxPoint x="1280" y="-800" as="sourcePoint" />
            <Array as="points">
              <mxPoint x="1300" y="-801" />
              <mxPoint x="1300" y="-620" />
            </Array>
          </mxGeometry>
        </mxCell>
        <mxCell id="q9KjPtno_19c9KrTRLna-94" style="edgeStyle=orthogonalEdgeStyle;rounded=0;orthogonalLoop=1;jettySize=auto;html=1;exitX=0;exitY=0.5;exitDx=0;exitDy=0;entryX=0;entryY=0.5;entryDx=0;entryDy=0;" parent="1" source="q9KjPtno_19c9KrTRLna-96" target="q9KjPtno_19c9KrTRLna-358" edge="1">
          <mxGeometry relative="1" as="geometry">
            <mxPoint x="1150" y="-761" as="targetPoint" />
            <Array as="points">
              <mxPoint x="1150" y="-801" />
              <mxPoint x="1150" y="-721" />
            </Array>
          </mxGeometry>
        </mxCell>
        <mxCell id="q9KjPtno_19c9KrTRLna-95" style="edgeStyle=orthogonalEdgeStyle;rounded=0;orthogonalLoop=1;jettySize=auto;html=1;exitX=0;exitY=0.5;exitDx=0;exitDy=0;entryX=0;entryY=0.5;entryDx=0;entryDy=0;" parent="1" source="q9KjPtno_19c9KrTRLna-96" target="q9KjPtno_19c9KrTRLna-357" edge="1">
          <mxGeometry relative="1" as="geometry">
            <Array as="points">
              <mxPoint x="1150" y="-801" />
              <mxPoint x="1150" y="-670" />
            </Array>
          </mxGeometry>
        </mxCell>
        <mxCell id="q9KjPtno_19c9KrTRLna-96" value="Cashier" style="whiteSpace=wrap;html=1;align=center;fontStyle=1;fontSize=18;fillColor=#cce5ff;strokeColor=#36393d;" parent="1" vertex="1">
          <mxGeometry x="1180" y="-821" width="100" height="40" as="geometry" />
        </mxCell>
        <mxCell id="jkEgJ6Tg0IuruKc0SyGw-70" style="edgeStyle=orthogonalEdgeStyle;rounded=0;orthogonalLoop=1;jettySize=auto;html=1;exitX=0.5;exitY=1;exitDx=0;exitDy=0;entryX=0.5;entryY=0;entryDx=0;entryDy=0;" parent="1" source="q9KjPtno_19c9KrTRLna-98" target="q9KjPtno_19c9KrTRLna-99" edge="1">
          <mxGeometry relative="1" as="geometry" />
        </mxCell>
        <mxCell id="q9KjPtno_19c9KrTRLna-98" value="Manager" style="whiteSpace=wrap;html=1;align=center;fontStyle=1;fontSize=18;fillColor=#cce5ff;strokeColor=#36393d;" parent="1" vertex="1">
          <mxGeometry x="900" y="-821" width="100" height="40" as="geometry" />
        </mxCell>
        <mxCell id="q9KjPtno_19c9KrTRLna-99" value="sector" style="ellipse;whiteSpace=wrap;html=1;align=center;" parent="1" vertex="1">
          <mxGeometry x="900" y="-760" width="100" height="40" as="geometry" />
        </mxCell>
        <mxCell id="q9KjPtno_19c9KrTRLna-100" style="edgeStyle=orthogonalEdgeStyle;rounded=0;orthogonalLoop=1;jettySize=auto;html=1;entryX=0.5;entryY=0;entryDx=0;entryDy=0;exitX=0.5;exitY=1;exitDx=0;exitDy=0;" parent="1" target="q9KjPtno_19c9KrTRLna-340" edge="1">
          <mxGeometry relative="1" as="geometry">
            <Array as="points">
              <mxPoint x="1370" y="-761" />
              <mxPoint x="1480" y="-761" />
            </Array>
            <mxPoint x="1409.5" y="-681" as="targetPoint" />
            <mxPoint x="1370" y="-781" as="sourcePoint" />
          </mxGeometry>
        </mxCell>
        <mxCell id="q9KjPtno_19c9KrTRLna-101" value="d" style="ellipse;whiteSpace=wrap;html=1;aspect=fixed;" parent="1" vertex="1">
          <mxGeometry x="1136.5" y="-920" width="30" height="30" as="geometry" />
        </mxCell>
        <mxCell id="q9KjPtno_19c9KrTRLna-102" value="" style="ellipse;whiteSpace=wrap;html=1;align=center;aspect=fixed;fillColor=none;strokeColor=none;resizable=0;perimeter=centerPerimeter;rotatable=0;allowArrows=0;points=[];outlineConnect=1;" parent="1" vertex="1">
          <mxGeometry x="1171.5" y="-851" width="10" height="10" as="geometry" />
        </mxCell>
        <mxCell id="q9KjPtno_19c9KrTRLna-103" value="" style="endArrow=none;html=1;rounded=0;exitX=0.5;exitY=1;exitDx=0;exitDy=0;entryX=0.5;entryY=0;entryDx=0;entryDy=0;" parent="1" source="q9KjPtno_19c9KrTRLna-101" target="q9KjPtno_19c9KrTRLna-98" edge="1">
          <mxGeometry relative="1" as="geometry">
            <mxPoint x="1101.5" y="-880" as="sourcePoint" />
            <mxPoint x="1261.5" y="-880" as="targetPoint" />
          </mxGeometry>
        </mxCell>
        <mxCell id="q9KjPtno_19c9KrTRLna-104" value="" style="shape=requiredInterface;html=1;verticalLabelPosition=bottom;sketch=0;rotation=160;" parent="1" vertex="1">
          <mxGeometry x="1032" y="-862.5" width="20" height="20" as="geometry" />
        </mxCell>
        <mxCell id="q9KjPtno_19c9KrTRLna-105" value="" style="shape=requiredInterface;html=1;verticalLabelPosition=bottom;sketch=0;rotation=50;" parent="1" vertex="1">
          <mxGeometry x="1194" y="-855" width="20" height="20" as="geometry" />
        </mxCell>
        <mxCell id="q9KjPtno_19c9KrTRLna-106" value="" style="endArrow=none;html=1;rounded=0;entryX=0.5;entryY=1;entryDx=0;entryDy=0;exitX=0.55;exitY=0.031;exitDx=0;exitDy=0;exitPerimeter=0;" parent="1" source="q9KjPtno_19c9KrTRLna-92" target="q9KjPtno_19c9KrTRLna-101" edge="1">
          <mxGeometry relative="1" as="geometry">
            <mxPoint x="1021.5" y="-860" as="sourcePoint" />
            <mxPoint x="1181.5" y="-860" as="targetPoint" />
          </mxGeometry>
        </mxCell>
        <mxCell id="q9KjPtno_19c9KrTRLna-107" value="" style="shape=requiredInterface;html=1;verticalLabelPosition=bottom;sketch=0;rotation=20;" parent="1" vertex="1">
          <mxGeometry x="1260" y="-862" width="20" height="20" as="geometry" />
        </mxCell>
        <mxCell id="q9KjPtno_19c9KrTRLna-108" value="" style="endArrow=none;html=1;rounded=0;exitX=0.5;exitY=1;exitDx=0;exitDy=0;entryX=0.5;entryY=0;entryDx=0;entryDy=0;" parent="1" source="q9KjPtno_19c9KrTRLna-101" target="q9KjPtno_19c9KrTRLna-96" edge="1">
          <mxGeometry relative="1" as="geometry">
            <mxPoint x="1161.5" y="-860" as="sourcePoint" />
            <mxPoint x="1321.5" y="-860" as="targetPoint" />
          </mxGeometry>
        </mxCell>
        <mxCell id="jkEgJ6Tg0IuruKc0SyGw-61" style="edgeStyle=orthogonalEdgeStyle;rounded=0;orthogonalLoop=1;jettySize=auto;html=1;entryX=1;entryY=0.5;entryDx=0;entryDy=0;exitX=0;exitY=0.5;exitDx=0;exitDy=0;" parent="1" source="q9KjPtno_19c9KrTRLna-112" target="q9KjPtno_19c9KrTRLna-116" edge="1">
          <mxGeometry relative="1" as="geometry">
            <mxPoint x="520" y="-710" as="sourcePoint" />
            <Array as="points">
              <mxPoint x="520" y="-680" />
              <mxPoint x="520" y="-730" />
            </Array>
          </mxGeometry>
        </mxCell>
        <mxCell id="jkEgJ6Tg0IuruKc0SyGw-64" style="edgeStyle=orthogonalEdgeStyle;rounded=0;orthogonalLoop=1;jettySize=auto;html=1;entryX=1;entryY=0.5;entryDx=0;entryDy=0;exitX=0;exitY=0.5;exitDx=0;exitDy=0;" parent="1" source="q9KjPtno_19c9KrTRLna-112" target="q9KjPtno_19c9KrTRLna-121" edge="1">
          <mxGeometry relative="1" as="geometry">
            <mxPoint x="520" y="-710" as="sourcePoint" />
            <Array as="points">
              <mxPoint x="520" y="-680" />
              <mxPoint x="520" y="-790" />
            </Array>
          </mxGeometry>
        </mxCell>
        <mxCell id="jkEgJ6Tg0IuruKc0SyGw-69" style="edgeStyle=orthogonalEdgeStyle;rounded=0;orthogonalLoop=1;jettySize=auto;html=1;entryX=1;entryY=0.5;entryDx=0;entryDy=0;exitX=0;exitY=0.5;exitDx=0;exitDy=0;" parent="1" source="q9KjPtno_19c9KrTRLna-112" target="q9KjPtno_19c9KrTRLna-113" edge="1">
          <mxGeometry relative="1" as="geometry">
            <mxPoint x="520" y="-710" as="sourcePoint" />
            <Array as="points">
              <mxPoint x="520" y="-680" />
              <mxPoint x="520" y="-850" />
            </Array>
          </mxGeometry>
        </mxCell>
        <mxCell id="q9KjPtno_19c9KrTRLna-112" value="Customer" style="whiteSpace=wrap;html=1;align=center;fontStyle=1;fontSize=18;fillColor=#cce5ff;strokeColor=#36393d;" parent="1" vertex="1">
          <mxGeometry x="550" y="-700" width="100" height="40" as="geometry" />
        </mxCell>
        <mxCell id="q9KjPtno_19c9KrTRLna-113" value="customer_phone" style="ellipse;whiteSpace=wrap;html=1;align=center;fontStyle=4;" parent="1" vertex="1">
          <mxGeometry x="400" y="-870" width="100" height="40" as="geometry" />
        </mxCell>
        <mxCell id="jkEgJ6Tg0IuruKc0SyGw-62" style="edgeStyle=orthogonalEdgeStyle;rounded=0;orthogonalLoop=1;jettySize=auto;html=1;exitX=0;exitY=0.5;exitDx=0;exitDy=0;entryX=1;entryY=0.5;entryDx=0;entryDy=0;" parent="1" source="q9KjPtno_19c9KrTRLna-116" target="q9KjPtno_19c9KrTRLna-341" edge="1">
          <mxGeometry relative="1" as="geometry">
            <Array as="points">
              <mxPoint x="390" y="-731" />
              <mxPoint x="390" y="-750" />
            </Array>
          </mxGeometry>
        </mxCell>
        <mxCell id="jkEgJ6Tg0IuruKc0SyGw-63" style="edgeStyle=orthogonalEdgeStyle;rounded=0;orthogonalLoop=1;jettySize=auto;html=1;exitX=0;exitY=0.5;exitDx=0;exitDy=0;entryX=1;entryY=0.5;entryDx=0;entryDy=0;" parent="1" source="q9KjPtno_19c9KrTRLna-116" target="q9KjPtno_19c9KrTRLna-342" edge="1">
          <mxGeometry relative="1" as="geometry">
            <Array as="points">
              <mxPoint x="390" y="-731" />
              <mxPoint x="390" y="-701" />
            </Array>
          </mxGeometry>
        </mxCell>
        <mxCell id="q9KjPtno_19c9KrTRLna-116" value="name" style="ellipse;whiteSpace=wrap;html=1;align=center;" parent="1" vertex="1">
          <mxGeometry x="400" y="-750" width="100" height="40" as="geometry" />
        </mxCell>
        <mxCell id="jkEgJ6Tg0IuruKc0SyGw-65" style="edgeStyle=orthogonalEdgeStyle;rounded=0;orthogonalLoop=1;jettySize=auto;html=1;exitX=0;exitY=0.5;exitDx=0;exitDy=0;entryX=1;entryY=0.5;entryDx=0;entryDy=0;" parent="1" source="q9KjPtno_19c9KrTRLna-121" target="q9KjPtno_19c9KrTRLna-343" edge="1">
          <mxGeometry relative="1" as="geometry" />
        </mxCell>
        <mxCell id="jkEgJ6Tg0IuruKc0SyGw-66" style="edgeStyle=orthogonalEdgeStyle;rounded=0;orthogonalLoop=1;jettySize=auto;html=1;exitX=0;exitY=0.5;exitDx=0;exitDy=0;entryX=1;entryY=0.5;entryDx=0;entryDy=0;" parent="1" source="q9KjPtno_19c9KrTRLna-121" target="q9KjPtno_19c9KrTRLna-344" edge="1">
          <mxGeometry relative="1" as="geometry">
            <Array as="points">
              <mxPoint x="390" y="-790" />
              <mxPoint x="390" y="-820" />
            </Array>
          </mxGeometry>
        </mxCell>
        <mxCell id="jkEgJ6Tg0IuruKc0SyGw-67" style="edgeStyle=orthogonalEdgeStyle;rounded=0;orthogonalLoop=1;jettySize=auto;html=1;exitX=0;exitY=0.5;exitDx=0;exitDy=0;entryX=1;entryY=0.5;entryDx=0;entryDy=0;" parent="1" source="q9KjPtno_19c9KrTRLna-121" target="q9KjPtno_19c9KrTRLna-345" edge="1">
          <mxGeometry relative="1" as="geometry">
            <Array as="points">
              <mxPoint x="390" y="-790" />
              <mxPoint x="390" y="-850" />
            </Array>
          </mxGeometry>
        </mxCell>
        <mxCell id="jkEgJ6Tg0IuruKc0SyGw-68" style="edgeStyle=orthogonalEdgeStyle;rounded=0;orthogonalLoop=1;jettySize=auto;html=1;exitX=0;exitY=0.5;exitDx=0;exitDy=0;entryX=1;entryY=0.5;entryDx=0;entryDy=0;" parent="1" source="q9KjPtno_19c9KrTRLna-121" target="q9KjPtno_19c9KrTRLna-346" edge="1">
          <mxGeometry relative="1" as="geometry">
            <Array as="points">
              <mxPoint x="390" y="-790" />
              <mxPoint x="390" y="-880" />
            </Array>
          </mxGeometry>
        </mxCell>
        <mxCell id="q9KjPtno_19c9KrTRLna-121" value="address" style="ellipse;whiteSpace=wrap;html=1;align=center;" parent="1" vertex="1">
          <mxGeometry x="400" y="-810" width="100" height="40" as="geometry" />
        </mxCell>
        <mxCell id="q9KjPtno_19c9KrTRLna-122" style="edgeStyle=orthogonalEdgeStyle;rounded=0;orthogonalLoop=1;jettySize=auto;html=1;exitX=0.5;exitY=0;exitDx=0;exitDy=0;entryX=0.5;entryY=1;entryDx=0;entryDy=0;fontStyle=0" parent="1" source="q9KjPtno_19c9KrTRLna-128" target="q9KjPtno_19c9KrTRLna-130" edge="1">
          <mxGeometry relative="1" as="geometry">
            <Array as="points">
              <mxPoint x="516" y="-500" />
              <mxPoint x="450" y="-500" />
            </Array>
          </mxGeometry>
        </mxCell>
        <mxCell id="q9KjPtno_19c9KrTRLna-123" style="edgeStyle=orthogonalEdgeStyle;rounded=0;orthogonalLoop=1;jettySize=auto;html=1;fontStyle=0;entryX=0.5;entryY=1;entryDx=0;entryDy=0;" parent="1" source="q9KjPtno_19c9KrTRLna-128" target="q9KjPtno_19c9KrTRLna-132" edge="1">
          <mxGeometry relative="1" as="geometry">
            <Array as="points">
              <mxPoint x="516" y="-560" />
            </Array>
            <mxPoint x="510" y="-540" as="targetPoint" />
          </mxGeometry>
        </mxCell>
        <mxCell id="q9KjPtno_19c9KrTRLna-124" style="edgeStyle=orthogonalEdgeStyle;rounded=0;orthogonalLoop=1;jettySize=auto;html=1;exitX=0.5;exitY=0;exitDx=0;exitDy=0;fontStyle=0;entryX=0.5;entryY=1;entryDx=0;entryDy=0;" parent="1" source="q9KjPtno_19c9KrTRLna-128" target="jkEgJ6Tg0IuruKc0SyGw-8" edge="1">
          <mxGeometry relative="1" as="geometry">
            <mxPoint x="600" y="-520" as="targetPoint" />
            <Array as="points">
              <mxPoint x="516" y="-500" />
              <mxPoint x="580" y="-500" />
            </Array>
          </mxGeometry>
        </mxCell>
        <mxCell id="q9KjPtno_19c9KrTRLna-126" value="1" style="edgeStyle=orthogonalEdgeStyle;rounded=0;orthogonalLoop=1;jettySize=auto;html=1;exitX=0;exitY=0.25;exitDx=0;exitDy=0;entryX=1;entryY=0.5;entryDx=0;entryDy=0;endArrow=none;endFill=0;fontSize=16;fontStyle=1;" parent="1" source="q9KjPtno_19c9KrTRLna-128" target="jkEgJ6Tg0IuruKc0SyGw-7" edge="1">
          <mxGeometry x="1" y="15" relative="1" as="geometry">
            <mxPoint as="offset" />
            <mxPoint x="420" y="-465" as="targetPoint" />
          </mxGeometry>
        </mxCell>
        <mxCell id="q9KjPtno_19c9KrTRLna-127" value="N" style="edgeStyle=orthogonalEdgeStyle;rounded=0;orthogonalLoop=1;jettySize=auto;html=1;exitX=0.601;exitY=0.991;exitDx=0;exitDy=0;endArrow=none;endFill=0;entryX=0;entryY=0.5;entryDx=0;entryDy=0;exitPerimeter=0;fontStyle=1;fontSize=16;" parent="1" source="q9KjPtno_19c9KrTRLna-128" target="q9KjPtno_19c9KrTRLna-292" edge="1">
          <mxGeometry x="1" y="20" relative="1" as="geometry">
            <mxPoint x="940" y="-550" as="targetPoint" />
            <Array as="points">
              <mxPoint x="530" y="-420" />
              <mxPoint x="530" y="-370" />
              <mxPoint x="770" y="-370" />
              <mxPoint x="770" />
            </Array>
            <mxPoint as="offset" />
          </mxGeometry>
        </mxCell>
        <mxCell id="q9KjPtno_19c9KrTRLna-128" value="&lt;font style=&quot;font-size: 18px;&quot;&gt;Branch&lt;/font&gt;" style="whiteSpace=wrap;html=1;fontStyle=1;fontSize=18;fillColor=#cce5ff;strokeColor=#36393d;" parent="1" vertex="1">
          <mxGeometry x="456" y="-480" width="120" height="60" as="geometry" />
        </mxCell>
        <mxCell id="q9KjPtno_19c9KrTRLna-130" value="branch_name" style="ellipse;whiteSpace=wrap;html=1;fontStyle=4" parent="1" vertex="1">
          <mxGeometry x="400" y="-560" width="100" height="40" as="geometry" />
        </mxCell>
        <mxCell id="q9KjPtno_19c9KrTRLna-132" value="&lt;span&gt;branch_&lt;/span&gt;&lt;span style=&quot;background-color: initial;&quot;&gt;address&lt;/span&gt;" style="ellipse;whiteSpace=wrap;html=1;fontStyle=0" parent="1" vertex="1">
          <mxGeometry x="466" y="-600" width="100" height="40" as="geometry" />
        </mxCell>
        <mxCell id="q9KjPtno_19c9KrTRLna-134" value="M" style="edgeStyle=orthogonalEdgeStyle;rounded=0;orthogonalLoop=1;jettySize=auto;html=1;entryX=0.5;entryY=1;entryDx=0;entryDy=0;fontSize=16;fontStyle=1;exitX=0.5;exitY=0;exitDx=0;exitDy=0;shape=link;" parent="1" source="jkEgJ6Tg0IuruKc0SyGw-5" target="jkEgJ6Tg0IuruKc0SyGw-7" edge="1">
          <mxGeometry x="0.7778" y="-20" relative="1" as="geometry">
            <mxPoint x="230" y="-465" as="sourcePoint" />
            <mxPoint as="offset" />
            <mxPoint x="299.9999999999999" y="-465" as="targetPoint" />
          </mxGeometry>
        </mxCell>
        <mxCell id="q9KjPtno_19c9KrTRLna-135" value="M" style="edgeStyle=orthogonalEdgeStyle;rounded=0;orthogonalLoop=1;jettySize=auto;html=1;entryX=0.5;entryY=0;entryDx=0;entryDy=0;endArrow=none;endFill=0;fontStyle=1;fontSize=16;exitX=1;exitY=0.5;exitDx=0;exitDy=0;" parent="1" source="jkEgJ6Tg0IuruKc0SyGw-5" target="q9KjPtno_19c9KrTRLna-153" edge="1">
          <mxGeometry x="0.8333" y="20" relative="1" as="geometry">
            <mxPoint x="260" y="-375" as="sourcePoint" />
            <mxPoint as="offset" />
            <Array as="points">
              <mxPoint x="283" y="-360" />
              <mxPoint x="283" y="-290" />
            </Array>
          </mxGeometry>
        </mxCell>
        <mxCell id="q9KjPtno_19c9KrTRLna-142" value="&lt;span&gt;capacity&lt;/span&gt;" style="ellipse;whiteSpace=wrap;html=1;fontStyle=0" parent="1" vertex="1">
          <mxGeometry x="120" y="-265" width="100" height="40" as="geometry" />
        </mxCell>
        <mxCell id="q9KjPtno_19c9KrTRLna-144" style="edgeStyle=orthogonalEdgeStyle;rounded=0;orthogonalLoop=1;jettySize=auto;html=1;exitX=0.5;exitY=1;exitDx=0;exitDy=0;entryX=0.5;entryY=0;entryDx=0;entryDy=0;fontStyle=0" parent="1" source="jkEgJ6Tg0IuruKc0SyGw-13" target="q9KjPtno_19c9KrTRLna-152" edge="1">
          <mxGeometry relative="1" as="geometry">
            <mxPoint x="560" y="20.000000000000455" as="targetPoint" />
            <mxPoint x="372.5" y="-150" as="sourcePoint" />
            <Array as="points">
              <mxPoint x="282.5" y="-130" />
              <mxPoint x="335.5" y="-130" />
            </Array>
          </mxGeometry>
        </mxCell>
        <mxCell id="q9KjPtno_19c9KrTRLna-146" style="edgeStyle=orthogonalEdgeStyle;rounded=0;orthogonalLoop=1;jettySize=auto;html=1;exitX=0.5;exitY=1;exitDx=0;exitDy=0;entryX=0.5;entryY=0;entryDx=0;entryDy=0;fontStyle=0" parent="1" source="jkEgJ6Tg0IuruKc0SyGw-13" target="q9KjPtno_19c9KrTRLna-150" edge="1">
          <mxGeometry relative="1" as="geometry">
            <mxPoint x="260" y="20.000000000000455" as="targetPoint" />
            <Array as="points">
              <mxPoint x="282.5" y="-130" />
              <mxPoint x="229.5" y="-130" />
            </Array>
            <mxPoint x="372.5" y="-150" as="sourcePoint" />
          </mxGeometry>
        </mxCell>
        <mxCell id="q9KjPtno_19c9KrTRLna-147" value="N" style="edgeStyle=orthogonalEdgeStyle;rounded=0;orthogonalLoop=1;jettySize=auto;html=1;exitX=0.5;exitY=0;exitDx=0;exitDy=0;entryX=0.5;entryY=1;entryDx=0;entryDy=0;shape=link;fontStyle=1;fontSize=16;" parent="1" source="jkEgJ6Tg0IuruKc0SyGw-13" target="q9KjPtno_19c9KrTRLna-153" edge="1">
          <mxGeometry x="0.7778" y="-20" relative="1" as="geometry">
            <mxPoint as="offset" />
            <mxPoint x="360" y="-190" as="sourcePoint" />
          </mxGeometry>
        </mxCell>
        <mxCell id="q9KjPtno_19c9KrTRLna-150" value="&lt;span&gt;date_and_time&lt;/span&gt;" style="ellipse;whiteSpace=wrap;html=1;fontStyle=0" parent="1" vertex="1">
          <mxGeometry x="180" y="-105" width="100" height="40" as="geometry" />
        </mxCell>
        <mxCell id="q9KjPtno_19c9KrTRLna-152" value="&lt;span style=&quot;font-size: 11px;&quot;&gt;number_of_guests&lt;/span&gt;" style="ellipse;whiteSpace=wrap;html=1;fontSize=11;fontStyle=0" parent="1" vertex="1">
          <mxGeometry x="285" y="-105" width="100" height="40" as="geometry" />
        </mxCell>
        <mxCell id="q9KjPtno_19c9KrTRLna-153" value="Reserved" style="rhombus;whiteSpace=wrap;html=1;fontStyle=1;fontSize=16;fillColor=#cdeb8b;strokeColor=#36393d;" parent="1" vertex="1">
          <mxGeometry x="222.5" y="-290" width="120" height="60" as="geometry" />
        </mxCell>
        <mxCell id="q9KjPtno_19c9KrTRLna-210" value="M" style="edgeStyle=orthogonalEdgeStyle;rounded=0;orthogonalLoop=1;jettySize=auto;html=1;endArrow=none;endFill=0;entryX=1;entryY=0.5;entryDx=0;entryDy=0;shape=link;exitX=0;exitY=0.75;exitDx=0;exitDy=0;fontStyle=1;fontSize=16;" parent="1" source="q9KjPtno_19c9KrTRLna-221" target="q9KjPtno_19c9KrTRLna-309" edge="1">
          <mxGeometry x="1" y="-15" relative="1" as="geometry">
            <mxPoint x="1710" y="-710" as="targetPoint" />
            <mxPoint x="1180" y="-545" as="sourcePoint" />
            <Array as="points">
              <mxPoint x="960" y="-450" />
              <mxPoint x="960" y="-310" />
              <mxPoint x="710" y="-310" />
              <mxPoint x="710" y="-65" />
            </Array>
            <mxPoint as="offset" />
          </mxGeometry>
        </mxCell>
        <mxCell id="q9KjPtno_19c9KrTRLna-211" value="1" style="edgeStyle=orthogonalEdgeStyle;rounded=0;orthogonalLoop=1;jettySize=auto;html=1;exitX=0;exitY=0.5;exitDx=0;exitDy=0;endArrow=none;endFill=0;entryX=1;entryY=0.5;entryDx=0;entryDy=0;fontStyle=1;fontSize=16;" parent="1" source="q9KjPtno_19c9KrTRLna-221" target="jkEgJ6Tg0IuruKc0SyGw-17" edge="1">
          <mxGeometry x="1" y="-12" relative="1" as="geometry">
            <mxPoint x="650" y="-260" as="targetPoint" />
            <Array as="points">
              <mxPoint x="940" y="-465" />
              <mxPoint x="940" y="-330" />
              <mxPoint x="680" y="-330" />
              <mxPoint x="680" y="-260" />
            </Array>
            <mxPoint y="-1" as="offset" />
          </mxGeometry>
        </mxCell>
        <mxCell id="q9KjPtno_19c9KrTRLna-220" value="N" style="edgeStyle=orthogonalEdgeStyle;rounded=0;orthogonalLoop=1;jettySize=auto;html=1;exitX=0.5;exitY=0;exitDx=0;exitDy=0;entryX=0.5;entryY=1;entryDx=0;entryDy=0;shape=link;fontStyle=1;fontSize=16;" parent="1" source="q9KjPtno_19c9KrTRLna-221" target="q9KjPtno_19c9KrTRLna-311" edge="1">
          <mxGeometry x="0.7335" y="10" relative="1" as="geometry">
            <Array as="points">
              <mxPoint x="1200" y="-530" />
              <mxPoint x="1200" y="-530" />
            </Array>
            <mxPoint as="offset" />
          </mxGeometry>
        </mxCell>
        <mxCell id="jkEgJ6Tg0IuruKc0SyGw-35" style="edgeStyle=orthogonalEdgeStyle;rounded=0;orthogonalLoop=1;jettySize=auto;html=1;exitX=0.5;exitY=1;exitDx=0;exitDy=0;entryX=0.5;entryY=0;entryDx=0;entryDy=0;" parent="1" source="q9KjPtno_19c9KrTRLna-221" target="q9KjPtno_19c9KrTRLna-222" edge="1">
          <mxGeometry relative="1" as="geometry" />
        </mxCell>
        <mxCell id="jkEgJ6Tg0IuruKc0SyGw-36" style="edgeStyle=orthogonalEdgeStyle;rounded=0;orthogonalLoop=1;jettySize=auto;html=1;exitX=0.5;exitY=1;exitDx=0;exitDy=0;entryX=0.5;entryY=0;entryDx=0;entryDy=0;" parent="1" source="q9KjPtno_19c9KrTRLna-221" target="q9KjPtno_19c9KrTRLna-242" edge="1">
          <mxGeometry relative="1" as="geometry">
            <Array as="points">
              <mxPoint x="1200" y="-420" />
              <mxPoint x="1020" y="-420" />
            </Array>
          </mxGeometry>
        </mxCell>
        <mxCell id="jkEgJ6Tg0IuruKc0SyGw-37" style="edgeStyle=orthogonalEdgeStyle;rounded=0;orthogonalLoop=1;jettySize=auto;html=1;exitX=0.5;exitY=1;exitDx=0;exitDy=0;entryX=0.5;entryY=0;entryDx=0;entryDy=0;" parent="1" source="q9KjPtno_19c9KrTRLna-221" target="q9KjPtno_19c9KrTRLna-225" edge="1">
          <mxGeometry relative="1" as="geometry">
            <Array as="points">
              <mxPoint x="1200" y="-420" />
              <mxPoint x="1260" y="-420" />
            </Array>
          </mxGeometry>
        </mxCell>
        <mxCell id="jkEgJ6Tg0IuruKc0SyGw-39" style="edgeStyle=orthogonalEdgeStyle;rounded=0;orthogonalLoop=1;jettySize=auto;html=1;exitX=0.5;exitY=1;exitDx=0;exitDy=0;entryX=0.5;entryY=0;entryDx=0;entryDy=0;" parent="1" source="q9KjPtno_19c9KrTRLna-221" target="q9KjPtno_19c9KrTRLna-226" edge="1">
          <mxGeometry relative="1" as="geometry">
            <Array as="points">
              <mxPoint x="1200" y="-420" />
              <mxPoint x="1080" y="-420" />
            </Array>
          </mxGeometry>
        </mxCell>
        <mxCell id="jkEgJ6Tg0IuruKc0SyGw-40" style="edgeStyle=orthogonalEdgeStyle;rounded=0;orthogonalLoop=1;jettySize=auto;html=1;exitX=0.5;exitY=1;exitDx=0;exitDy=0;entryX=0.5;entryY=0;entryDx=0;entryDy=0;" parent="1" source="q9KjPtno_19c9KrTRLna-221" target="jkEgJ6Tg0IuruKc0SyGw-19" edge="1">
          <mxGeometry relative="1" as="geometry">
            <Array as="points">
              <mxPoint x="1200" y="-420" />
              <mxPoint x="1320" y="-420" />
              <mxPoint x="1320" y="-360" />
            </Array>
          </mxGeometry>
        </mxCell>
        <mxCell id="jkEgJ6Tg0IuruKc0SyGw-41" style="edgeStyle=orthogonalEdgeStyle;rounded=0;orthogonalLoop=1;jettySize=auto;html=1;exitX=0.5;exitY=1;exitDx=0;exitDy=0;entryX=0.5;entryY=0;entryDx=0;entryDy=0;" parent="1" source="q9KjPtno_19c9KrTRLna-221" target="q9KjPtno_19c9KrTRLna-224" edge="1">
          <mxGeometry relative="1" as="geometry">
            <Array as="points">
              <mxPoint x="1200" y="-420" />
              <mxPoint x="1140" y="-420" />
              <mxPoint x="1140" y="-400" />
            </Array>
          </mxGeometry>
        </mxCell>
        <mxCell id="jkEgJ6Tg0IuruKc0SyGw-42" value="1" style="edgeStyle=orthogonalEdgeStyle;rounded=0;orthogonalLoop=1;jettySize=auto;html=1;exitX=0.75;exitY=0;exitDx=0;exitDy=0;entryX=0;entryY=0.5;entryDx=0;entryDy=0;endArrow=none;endFill=0;fontStyle=1;fontSize=16;" parent="1" source="q9KjPtno_19c9KrTRLna-221" target="jkEgJ6Tg0IuruKc0SyGw-18" edge="1">
          <mxGeometry x="1" y="15" relative="1" as="geometry">
            <mxPoint as="offset" />
          </mxGeometry>
        </mxCell>
        <mxCell id="q9KjPtno_19c9KrTRLna-221" value="Order" style="whiteSpace=wrap;html=1;align=center;fontStyle=1;fontSize=18;fillColor=#cce5ff;strokeColor=#36393d;" parent="1" vertex="1">
          <mxGeometry x="1140" y="-495" width="120" height="60" as="geometry" />
        </mxCell>
        <mxCell id="q9KjPtno_19c9KrTRLna-222" value="status" style="ellipse;whiteSpace=wrap;html=1;align=center;" parent="1" vertex="1">
          <mxGeometry x="1150" y="-360" width="100" height="40" as="geometry" />
        </mxCell>
        <mxCell id="q9KjPtno_19c9KrTRLna-224" value="general_notes" style="ellipse;whiteSpace=wrap;html=1;align=center;" parent="1" vertex="1">
          <mxGeometry x="1089.5" y="-400" width="100" height="40" as="geometry" />
        </mxCell>
        <mxCell id="q9KjPtno_19c9KrTRLna-225" value="date_and_time" style="ellipse;whiteSpace=wrap;html=1;align=center;" parent="1" vertex="1">
          <mxGeometry x="1210" y="-400" width="100" height="40" as="geometry" />
        </mxCell>
        <mxCell id="q9KjPtno_19c9KrTRLna-226" value="is_takeaway" style="ellipse;whiteSpace=wrap;html=1;align=center;" parent="1" vertex="1">
          <mxGeometry x="1030" y="-360" width="100" height="40" as="geometry" />
        </mxCell>
        <mxCell id="q9KjPtno_19c9KrTRLna-227" value="1" style="edgeStyle=orthogonalEdgeStyle;rounded=0;orthogonalLoop=1;jettySize=auto;html=1;exitX=0.5;exitY=1;exitDx=0;exitDy=0;shape=link;fontStyle=1;fontSize=16;entryX=0.5;entryY=0;entryDx=0;entryDy=0;" parent="1" source="jkEgJ6Tg0IuruKc0SyGw-16" target="jkEgJ6Tg0IuruKc0SyGw-14" edge="1">
          <mxGeometry x="-0.8462" y="-10" relative="1" as="geometry">
            <mxPoint as="offset" />
            <mxPoint x="1390" y="-485" as="sourcePoint" />
            <mxPoint x="1430" y="-330" as="targetPoint" />
            <Array as="points">
              <mxPoint x="1390" y="-435" />
            </Array>
          </mxGeometry>
        </mxCell>
        <mxCell id="q9KjPtno_19c9KrTRLna-229" value="M" style="edgeStyle=orthogonalEdgeStyle;rounded=0;orthogonalLoop=1;jettySize=auto;html=1;exitX=0;exitY=0.5;exitDx=0;exitDy=0;entryX=1;entryY=0.5;entryDx=0;entryDy=0;endArrow=none;endFill=0;fontStyle=1;fontSize=16;" parent="1" source="jkEgJ6Tg0IuruKc0SyGw-14" target="q9KjPtno_19c9KrTRLna-247" edge="1">
          <mxGeometry x="0.8919" y="-10" relative="1" as="geometry">
            <mxPoint x="1320" y="-270" as="sourcePoint" />
            <mxPoint as="offset" />
          </mxGeometry>
        </mxCell>
        <mxCell id="q9KjPtno_19c9KrTRLna-241" value="payment_method" style="ellipse;whiteSpace=wrap;html=1;align=center;" parent="1" vertex="1">
          <mxGeometry x="1340" y="-210" width="100" height="40" as="geometry" />
        </mxCell>
        <mxCell id="q9KjPtno_19c9KrTRLna-242" value="order_id" style="ellipse;whiteSpace=wrap;html=1;align=center;fontStyle=4;" parent="1" vertex="1">
          <mxGeometry x="970" y="-400" width="100" height="40" as="geometry" />
        </mxCell>
        <mxCell id="q9KjPtno_19c9KrTRLna-246" value="N" style="edgeStyle=orthogonalEdgeStyle;rounded=0;orthogonalLoop=1;jettySize=auto;html=1;exitX=0;exitY=0.5;exitDx=0;exitDy=0;entryX=1;entryY=0.5;entryDx=0;entryDy=0;endArrow=none;endFill=0;fontStyle=1;fontSize=16;" parent="1" source="q9KjPtno_19c9KrTRLna-247" target="q9KjPtno_19c9KrTRLna-261" edge="1">
          <mxGeometry x="-0.831" y="-10" relative="1" as="geometry">
            <mxPoint x="1060" y="-270" as="sourcePoint" />
            <mxPoint as="offset" />
          </mxGeometry>
        </mxCell>
        <mxCell id="q9KjPtno_19c9KrTRLna-247" value="Applies&lt;span style=&quot;font-size: 12px; font-weight: 400;&quot;&gt;_&lt;/span&gt;on" style="shape=rhombus;perimeter=rhombusPerimeter;whiteSpace=wrap;html=1;align=center;fontStyle=1;fontSize=16;fillColor=#cdeb8b;strokeColor=#36393d;" parent="1" vertex="1">
          <mxGeometry x="1052" y="-300" width="120" height="60" as="geometry" />
        </mxCell>
        <mxCell id="q9KjPtno_19c9KrTRLna-248" value="offer_id" style="ellipse;whiteSpace=wrap;html=1;align=center;fontStyle=4;" parent="1" vertex="1">
          <mxGeometry x="780.5" y="-170" width="100" height="40" as="geometry" />
        </mxCell>
        <mxCell id="q9KjPtno_19c9KrTRLna-249" value="discount_percentage" style="ellipse;whiteSpace=wrap;html=1;align=center;" parent="1" vertex="1">
          <mxGeometry x="1126" y="-170" width="125" height="40" as="geometry" />
        </mxCell>
        <mxCell id="q9KjPtno_19c9KrTRLna-250" value="conditions" style="ellipse;whiteSpace=wrap;html=1;align=center;" parent="1" vertex="1">
          <mxGeometry x="1020" y="-170" width="100" height="40" as="geometry" />
        </mxCell>
        <mxCell id="q9KjPtno_19c9KrTRLna-251" value="start_date" style="ellipse;whiteSpace=wrap;html=1;align=center;" parent="1" vertex="1">
          <mxGeometry x="1080" y="-210" width="100" height="40" as="geometry" />
        </mxCell>
        <mxCell id="q9KjPtno_19c9KrTRLna-252" value="type" style="ellipse;whiteSpace=wrap;html=1;align=center;" parent="1" vertex="1">
          <mxGeometry x="840" y="-210" width="100" height="40" as="geometry" />
        </mxCell>
        <mxCell id="jkEgJ6Tg0IuruKc0SyGw-24" style="edgeStyle=orthogonalEdgeStyle;rounded=0;orthogonalLoop=1;jettySize=auto;html=1;exitX=0.5;exitY=1;exitDx=0;exitDy=0;entryX=0.5;entryY=0;entryDx=0;entryDy=0;" parent="1" source="q9KjPtno_19c9KrTRLna-261" target="q9KjPtno_19c9KrTRLna-248" edge="1">
          <mxGeometry relative="1" as="geometry">
            <Array as="points">
              <mxPoint x="860" y="-230" />
              <mxPoint x="830" y="-230" />
            </Array>
          </mxGeometry>
        </mxCell>
        <mxCell id="jkEgJ6Tg0IuruKc0SyGw-25" style="edgeStyle=orthogonalEdgeStyle;rounded=0;orthogonalLoop=1;jettySize=auto;html=1;exitX=0.5;exitY=1;exitDx=0;exitDy=0;entryX=0.5;entryY=0;entryDx=0;entryDy=0;" parent="1" source="q9KjPtno_19c9KrTRLna-261" target="q9KjPtno_19c9KrTRLna-252" edge="1">
          <mxGeometry relative="1" as="geometry">
            <Array as="points">
              <mxPoint x="860" y="-230" />
              <mxPoint x="890" y="-230" />
            </Array>
          </mxGeometry>
        </mxCell>
        <mxCell id="jkEgJ6Tg0IuruKc0SyGw-26" style="edgeStyle=orthogonalEdgeStyle;rounded=0;orthogonalLoop=1;jettySize=auto;html=1;exitX=0.5;exitY=1;exitDx=0;exitDy=0;entryX=0.5;entryY=0;entryDx=0;entryDy=0;" parent="1" source="q9KjPtno_19c9KrTRLna-261" target="q9KjPtno_19c9KrTRLna-249" edge="1">
          <mxGeometry relative="1" as="geometry">
            <Array as="points">
              <mxPoint x="860" y="-230" />
              <mxPoint x="1188" y="-230" />
            </Array>
          </mxGeometry>
        </mxCell>
        <mxCell id="jkEgJ6Tg0IuruKc0SyGw-27" style="edgeStyle=orthogonalEdgeStyle;rounded=0;orthogonalLoop=1;jettySize=auto;html=1;exitX=0.5;exitY=1;exitDx=0;exitDy=0;entryX=0.5;entryY=0;entryDx=0;entryDy=0;" parent="1" source="q9KjPtno_19c9KrTRLna-261" target="q9KjPtno_19c9KrTRLna-328" edge="1">
          <mxGeometry relative="1" as="geometry">
            <Array as="points">
              <mxPoint x="860" y="-230" />
              <mxPoint x="1010" y="-230" />
            </Array>
          </mxGeometry>
        </mxCell>
        <mxCell id="jkEgJ6Tg0IuruKc0SyGw-28" style="edgeStyle=orthogonalEdgeStyle;rounded=0;orthogonalLoop=1;jettySize=auto;html=1;exitX=0.5;exitY=1;exitDx=0;exitDy=0;entryX=0.5;entryY=0;entryDx=0;entryDy=0;" parent="1" source="q9KjPtno_19c9KrTRLna-261" target="q9KjPtno_19c9KrTRLna-250" edge="1">
          <mxGeometry relative="1" as="geometry">
            <Array as="points">
              <mxPoint x="860" y="-230" />
              <mxPoint x="1070" y="-230" />
            </Array>
          </mxGeometry>
        </mxCell>
        <mxCell id="jkEgJ6Tg0IuruKc0SyGw-29" style="edgeStyle=orthogonalEdgeStyle;rounded=0;orthogonalLoop=1;jettySize=auto;html=1;exitX=0.5;exitY=1;exitDx=0;exitDy=0;entryX=0.5;entryY=0;entryDx=0;entryDy=0;" parent="1" source="q9KjPtno_19c9KrTRLna-261" target="q9KjPtno_19c9KrTRLna-251" edge="1">
          <mxGeometry relative="1" as="geometry">
            <Array as="points">
              <mxPoint x="860" y="-230" />
              <mxPoint x="1130" y="-230" />
            </Array>
          </mxGeometry>
        </mxCell>
        <mxCell id="jkEgJ6Tg0IuruKc0SyGw-30" style="edgeStyle=orthogonalEdgeStyle;rounded=0;orthogonalLoop=1;jettySize=auto;html=1;exitX=0.5;exitY=1;exitDx=0;exitDy=0;entryX=0.5;entryY=0;entryDx=0;entryDy=0;" parent="1" source="q9KjPtno_19c9KrTRLna-261" target="q9KjPtno_19c9KrTRLna-326" edge="1">
          <mxGeometry relative="1" as="geometry">
            <Array as="points">
              <mxPoint x="860" y="-230" />
              <mxPoint x="950" y="-230" />
            </Array>
          </mxGeometry>
        </mxCell>
        <mxCell id="B97XmydA9J7okkcv8C4M-3" style="edgeStyle=orthogonalEdgeStyle;rounded=0;orthogonalLoop=1;jettySize=auto;html=1;exitX=0.5;exitY=1;exitDx=0;exitDy=0;entryX=0.5;entryY=0;entryDx=0;entryDy=0;" parent="1" source="q9KjPtno_19c9KrTRLna-261" target="B97XmydA9J7okkcv8C4M-1" edge="1">
          <mxGeometry relative="1" as="geometry" />
        </mxCell>
        <mxCell id="q9KjPtno_19c9KrTRLna-261" value="Offer" style="whiteSpace=wrap;html=1;align=center;fontStyle=1;fontSize=18;fillColor=#cce5ff;strokeColor=#36393d;" parent="1" vertex="1">
          <mxGeometry x="810" y="-290" width="100" height="40" as="geometry" />
        </mxCell>
        <mxCell id="q9KjPtno_19c9KrTRLna-274" value="date_and_time" style="ellipse;whiteSpace=wrap;html=1;align=center;" parent="1" vertex="1">
          <mxGeometry x="1540" y="-415" width="100" height="40" as="geometry" />
        </mxCell>
        <mxCell id="q9KjPtno_19c9KrTRLna-275" value="delivery_notes" style="ellipse;whiteSpace=wrap;html=1;align=center;" parent="1" vertex="1">
          <mxGeometry x="1590" y="-295" width="100" height="40" as="geometry" />
        </mxCell>
        <mxCell id="q9KjPtno_19c9KrTRLna-276" value="address" style="ellipse;whiteSpace=wrap;html=1;align=center;" parent="1" vertex="1">
          <mxGeometry x="1590" y="-375" width="100" height="40" as="geometry" />
        </mxCell>
        <mxCell id="q9KjPtno_19c9KrTRLna-277" value="status" style="ellipse;whiteSpace=wrap;html=1;align=center;" parent="1" vertex="1">
          <mxGeometry x="1540" y="-500" width="100" height="40" as="geometry" />
        </mxCell>
        <mxCell id="q9KjPtno_19c9KrTRLna-278" value="delivery_fee" style="ellipse;whiteSpace=wrap;html=1;align=center;" parent="1" vertex="1">
          <mxGeometry x="1590" y="-455" width="100" height="40" as="geometry" />
        </mxCell>
        <mxCell id="q9KjPtno_19c9KrTRLna-279" value="1" style="edgeStyle=orthogonalEdgeStyle;rounded=0;orthogonalLoop=1;jettySize=auto;html=1;exitX=1;exitY=0.5;exitDx=0;exitDy=0;entryX=0;entryY=0.5;entryDx=0;entryDy=0;endArrow=none;endFill=0;fontStyle=1;fontSize=16;" parent="1" source="q9KjPtno_19c9KrTRLna-282" target="q9KjPtno_19c9KrTRLna-325" edge="1">
          <mxGeometry x="1" y="-20" relative="1" as="geometry">
            <mxPoint as="offset" />
          </mxGeometry>
        </mxCell>
        <mxCell id="q9KjPtno_19c9KrTRLna-280" style="edgeStyle=orthogonalEdgeStyle;rounded=0;orthogonalLoop=1;jettySize=auto;html=1;exitX=0.5;exitY=1;exitDx=0;exitDy=0;entryX=0.5;entryY=0;entryDx=0;entryDy=0;" parent="1" target="q9KjPtno_19c9KrTRLna-360" edge="1">
          <mxGeometry relative="1" as="geometry">
            <mxPoint x="1370" y="-781" as="sourcePoint" />
            <Array as="points">
              <mxPoint x="1370" y="-761" />
              <mxPoint x="1420" y="-761" />
            </Array>
          </mxGeometry>
        </mxCell>
        <mxCell id="q9KjPtno_19c9KrTRLna-281" style="edgeStyle=orthogonalEdgeStyle;rounded=0;orthogonalLoop=1;jettySize=auto;html=1;exitX=0.5;exitY=1;exitDx=0;exitDy=0;entryX=0.5;entryY=0;entryDx=0;entryDy=0;" parent="1" target="q9KjPtno_19c9KrTRLna-359" edge="1">
          <mxGeometry relative="1" as="geometry">
            <mxPoint x="1370" y="-781" as="sourcePoint" />
            <Array as="points">
              <mxPoint x="1370" y="-761" />
              <mxPoint x="1546" y="-761" />
              <mxPoint x="1546" y="-700" />
            </Array>
          </mxGeometry>
        </mxCell>
        <mxCell id="q9KjPtno_19c9KrTRLna-282" value="Delivery_guy" style="whiteSpace=wrap;html=1;align=center;fontStyle=1;fontSize=15;fillColor=#cce5ff;strokeColor=#36393d;" parent="1" vertex="1">
          <mxGeometry x="1320" y="-821" width="100" height="40" as="geometry" />
        </mxCell>
        <mxCell id="q9KjPtno_19c9KrTRLna-283" value="" style="endArrow=none;html=1;rounded=0;exitX=0.5;exitY=1;exitDx=0;exitDy=0;entryX=0.5;entryY=0;entryDx=0;entryDy=0;" parent="1" source="q9KjPtno_19c9KrTRLna-101" target="q9KjPtno_19c9KrTRLna-282" edge="1">
          <mxGeometry relative="1" as="geometry">
            <mxPoint x="1246.5" y="-980" as="sourcePoint" />
            <mxPoint x="1311.5" y="-900" as="targetPoint" />
          </mxGeometry>
        </mxCell>
        <mxCell id="q9KjPtno_19c9KrTRLna-284" value="" style="shape=requiredInterface;html=1;verticalLabelPosition=bottom;sketch=0;rotation=125;" parent="1" vertex="1">
          <mxGeometry x="1106" y="-856" width="20" height="20" as="geometry" />
        </mxCell>
        <mxCell id="q9KjPtno_19c9KrTRLna-285" value="1" style="edgeStyle=orthogonalEdgeStyle;rounded=0;orthogonalLoop=1;jettySize=auto;html=1;exitX=0;exitY=0.5;exitDx=0;exitDy=0;shape=link;fontSize=16;fontStyle=1;entryX=1;entryY=0.5;entryDx=0;entryDy=0;" parent="1" source="q9KjPtno_19c9KrTRLna-288" target="q9KjPtno_19c9KrTRLna-128" edge="1">
          <mxGeometry x="-1" y="-19" relative="1" as="geometry">
            <mxPoint x="250" y="-619.05" as="sourcePoint" />
            <mxPoint x="512" y="-620" as="targetPoint" />
            <Array as="points">
              <mxPoint x="720" y="-800" />
              <mxPoint x="720" y="-450" />
            </Array>
            <mxPoint x="1" as="offset" />
          </mxGeometry>
        </mxCell>
        <mxCell id="q9KjPtno_19c9KrTRLna-286" value="M" style="edgeStyle=orthogonalEdgeStyle;rounded=0;orthogonalLoop=1;jettySize=auto;html=1;shape=link;fontSize=16;fontStyle=1;entryX=0.195;entryY=1.009;entryDx=0;entryDy=0;entryPerimeter=0;exitX=0.5;exitY=0;exitDx=0;exitDy=0;" parent="1" source="q9KjPtno_19c9KrTRLna-290" target="q9KjPtno_19c9KrTRLna-128" edge="1">
          <mxGeometry x="-0.9408" y="10" relative="1" as="geometry">
            <mxPoint x="750" y="-110" as="sourcePoint" />
            <mxPoint x="520" y="-520" as="targetPoint" />
            <Array as="points">
              <mxPoint x="480" y="-420" />
            </Array>
            <mxPoint as="offset" />
          </mxGeometry>
        </mxCell>
        <mxCell id="q9KjPtno_19c9KrTRLna-287" value="M" style="edgeStyle=orthogonalEdgeStyle;rounded=0;orthogonalLoop=1;jettySize=auto;html=1;exitX=1;exitY=0.5;exitDx=0;exitDy=0;entryX=0;entryY=0.5;entryDx=0;entryDy=0;fontSize=16;shape=link;fontStyle=1" parent="1" source="q9KjPtno_19c9KrTRLna-288" target="q9KjPtno_19c9KrTRLna-98" edge="1">
          <mxGeometry x="-1" y="20" relative="1" as="geometry">
            <mxPoint as="offset" />
            <mxPoint x="870" y="-801" as="sourcePoint" />
          </mxGeometry>
        </mxCell>
        <mxCell id="q9KjPtno_19c9KrTRLna-288" value="Manages" style="shape=rhombus;perimeter=rhombusPerimeter;whiteSpace=wrap;html=1;align=center;fontStyle=1;fontSize=16;fillColor=#cdeb8b;strokeColor=#36393d;" parent="1" vertex="1">
          <mxGeometry x="750" y="-831" width="120" height="60" as="geometry" />
        </mxCell>
        <mxCell id="q9KjPtno_19c9KrTRLna-289" value="N" style="edgeStyle=orthogonalEdgeStyle;rounded=0;orthogonalLoop=1;jettySize=auto;html=1;exitX=0.5;exitY=1;exitDx=0;exitDy=0;entryX=0.25;entryY=0;entryDx=0;entryDy=0;shape=link;fontStyle=1;fontSize=16;" parent="1" source="q9KjPtno_19c9KrTRLna-290" target="q9KjPtno_19c9KrTRLna-8" edge="1">
          <mxGeometry x="-0.8824" y="-10" relative="1" as="geometry">
            <mxPoint as="offset" />
          </mxGeometry>
        </mxCell>
        <mxCell id="q9KjPtno_19c9KrTRLna-290" value="Available&lt;span style=&quot;font-size: 12px; font-weight: 400;&quot;&gt;_&lt;/span&gt;in" style="shape=rhombus;perimeter=rhombusPerimeter;whiteSpace=wrap;html=1;align=center;fontStyle=1;fontSize=16;fillColor=#cdeb8b;strokeColor=#36393d;" parent="1" vertex="1">
          <mxGeometry x="420" y="-140" width="120" height="60" as="geometry" />
        </mxCell>
        <mxCell id="q9KjPtno_19c9KrTRLna-291" style="edgeStyle=orthogonalEdgeStyle;rounded=0;orthogonalLoop=1;jettySize=auto;html=1;exitX=0.5;exitY=0;exitDx=0;exitDy=0;entryX=0.5;entryY=1;entryDx=0;entryDy=0;" parent="1" source="q9KjPtno_19c9KrTRLna-292" target="q9KjPtno_19c9KrTRLna-331" edge="1">
          <mxGeometry relative="1" as="geometry" />
        </mxCell>
        <mxCell id="q9KjPtno_19c9KrTRLna-292" value="Stores" style="shape=rhombus;perimeter=rhombusPerimeter;whiteSpace=wrap;html=1;align=center;fontStyle=1;fontSize=16;fillColor=#cdeb8b;strokeColor=#36393d;" parent="1" vertex="1">
          <mxGeometry x="790" y="-30" width="120" height="60" as="geometry" />
        </mxCell>
        <mxCell id="q9KjPtno_19c9KrTRLna-293" value="1" style="edgeStyle=orthogonalEdgeStyle;rounded=0;orthogonalLoop=1;jettySize=auto;html=1;exitX=0.398;exitY=0.993;exitDx=0;exitDy=0;endArrow=none;endFill=0;entryX=0;entryY=0.5;entryDx=0;entryDy=0;exitPerimeter=0;fontStyle=1;fontSize=16;" parent="1" source="q9KjPtno_19c9KrTRLna-128" target="q9KjPtno_19c9KrTRLna-294" edge="1">
          <mxGeometry x="1" y="20" relative="1" as="geometry">
            <mxPoint x="1015" y="-510" as="targetPoint" />
            <mxPoint x="785" y="-550" as="sourcePoint" />
            <Array as="points">
              <mxPoint x="504" y="-350" />
              <mxPoint x="750" y="-350" />
              <mxPoint x="750" y="200" />
            </Array>
            <mxPoint as="offset" />
          </mxGeometry>
        </mxCell>
        <mxCell id="q9KjPtno_19c9KrTRLna-294" value="Receives" style="shape=rhombus;perimeter=rhombusPerimeter;whiteSpace=wrap;html=1;align=center;fontStyle=1;fontSize=16;fillColor=#cdeb8b;strokeColor=#36393d;" parent="1" vertex="1">
          <mxGeometry x="917" y="170" width="120" height="60" as="geometry" />
        </mxCell>
        <mxCell id="q9KjPtno_19c9KrTRLna-295" value="N" style="edgeStyle=orthogonalEdgeStyle;rounded=0;orthogonalLoop=1;jettySize=auto;html=1;endArrow=none;endFill=0;entryX=0.5;entryY=0;entryDx=0;entryDy=0;exitX=0;exitY=0.75;exitDx=0;exitDy=0;fontStyle=1;fontSize=16;shape=link;" parent="1" source="q9KjPtno_19c9KrTRLna-128" target="q9KjPtno_19c9KrTRLna-297" edge="1">
          <mxGeometry x="0.8397" y="20" relative="1" as="geometry">
            <mxPoint x="1015" y="-590" as="targetPoint" />
            <mxPoint x="785" y="-630" as="sourcePoint" />
            <Array as="points">
              <mxPoint x="400" y="-435" />
            </Array>
            <mxPoint as="offset" />
          </mxGeometry>
        </mxCell>
        <mxCell id="q9KjPtno_19c9KrTRLna-296" value="M" style="edgeStyle=orthogonalEdgeStyle;rounded=0;orthogonalLoop=1;jettySize=auto;html=1;exitX=0.5;exitY=1;exitDx=0;exitDy=0;entryX=1;entryY=0.5;entryDx=0;entryDy=0;shape=link;fontStyle=1;fontSize=16;" parent="1" source="q9KjPtno_19c9KrTRLna-297" target="q9KjPtno_19c9KrTRLna-22" edge="1">
          <mxGeometry x="-0.9474" y="20" relative="1" as="geometry">
            <mxPoint as="offset" />
          </mxGeometry>
        </mxCell>
        <mxCell id="pYCSRxTtbDhpaxBL-4P_-7" style="edgeStyle=orthogonalEdgeStyle;rounded=0;orthogonalLoop=1;jettySize=auto;html=1;exitX=0;exitY=0.5;exitDx=0;exitDy=0;entryX=0.5;entryY=1;entryDx=0;entryDy=0;" parent="1" source="q9KjPtno_19c9KrTRLna-297" target="pYCSRxTtbDhpaxBL-4P_-6" edge="1">
          <mxGeometry relative="1" as="geometry" />
        </mxCell>
        <mxCell id="q9KjPtno_19c9KrTRLna-297" value="Owns" style="shape=rhombus;perimeter=rhombusPerimeter;whiteSpace=wrap;html=1;align=center;fontStyle=1;fontSize=16;fillColor=#cdeb8b;strokeColor=#36393d;" parent="1" vertex="1">
          <mxGeometry x="340" y="-390" width="120" height="60" as="geometry" />
        </mxCell>
        <mxCell id="q9KjPtno_19c9KrTRLna-298" value="1" style="edgeStyle=orthogonalEdgeStyle;rounded=0;orthogonalLoop=1;jettySize=auto;html=1;endArrow=none;endFill=0;entryX=0;entryY=0.5;entryDx=0;entryDy=0;exitX=1;exitY=0.75;exitDx=0;exitDy=0;fontStyle=1;fontSize=16;" parent="1" source="q9KjPtno_19c9KrTRLna-128" target="q9KjPtno_19c9KrTRLna-299" edge="1">
          <mxGeometry x="0.9881" y="20" relative="1" as="geometry">
            <mxPoint x="1064.5" y="-460" as="targetPoint" />
            <mxPoint x="780" y="-600" as="sourcePoint" />
            <Array as="points">
              <mxPoint x="760" y="-435" />
              <mxPoint x="760" y="-480" />
            </Array>
            <mxPoint as="offset" />
          </mxGeometry>
        </mxCell>
        <mxCell id="jkEgJ6Tg0IuruKc0SyGw-73" value="M" style="edgeStyle=orthogonalEdgeStyle;rounded=0;orthogonalLoop=1;jettySize=auto;html=1;exitX=1;exitY=0.5;exitDx=0;exitDy=0;entryX=0;entryY=0.25;entryDx=0;entryDy=0;shape=link;fontSize=16;fontStyle=1" parent="1" source="q9KjPtno_19c9KrTRLna-299" target="q9KjPtno_19c9KrTRLna-221" edge="1">
          <mxGeometry x="-1" y="20" relative="1" as="geometry">
            <mxPoint as="offset" />
          </mxGeometry>
        </mxCell>
        <mxCell id="q9KjPtno_19c9KrTRLna-299" value="Prepares" style="shape=rhombus;perimeter=rhombusPerimeter;whiteSpace=wrap;html=1;align=center;fontStyle=1;fontSize=16;fillColor=#cdeb8b;strokeColor=#36393d;" parent="1" vertex="1">
          <mxGeometry x="800" y="-510" width="120" height="60" as="geometry" />
        </mxCell>
        <mxCell id="q9KjPtno_19c9KrTRLna-300" value="1" style="edgeStyle=orthogonalEdgeStyle;rounded=0;orthogonalLoop=1;jettySize=auto;html=1;exitX=1;exitY=0.25;exitDx=0;exitDy=0;endArrow=none;endFill=0;entryX=0;entryY=0.5;entryDx=0;entryDy=0;shape=link;fontStyle=1;fontSize=16;" parent="1" source="q9KjPtno_19c9KrTRLna-128" target="q9KjPtno_19c9KrTRLna-301" edge="1">
          <mxGeometry x="0.986" y="20" relative="1" as="geometry">
            <mxPoint x="1080" y="-640" as="targetPoint" />
            <mxPoint x="850" y="-680" as="sourcePoint" />
            <Array as="points">
              <mxPoint x="690" y="-465" />
              <mxPoint x="690" y="-970" />
            </Array>
            <mxPoint as="offset" />
          </mxGeometry>
        </mxCell>
        <mxCell id="q9KjPtno_19c9KrTRLna-301" value="Works&lt;span style=&quot;font-size: 12px; font-weight: 400;&quot;&gt;_&lt;/span&gt;in" style="shape=rhombus;perimeter=rhombusPerimeter;whiteSpace=wrap;html=1;align=center;fontStyle=1;fontSize=16;fillColor=#cdeb8b;strokeColor=#36393d;" parent="1" vertex="1">
          <mxGeometry x="770.5" y="-1000" width="120" height="60" as="geometry" />
        </mxCell>
        <mxCell id="q9KjPtno_19c9KrTRLna-302" value="N" style="edgeStyle=orthogonalEdgeStyle;rounded=0;orthogonalLoop=1;jettySize=auto;html=1;endArrow=none;endFill=0;entryX=0;entryY=0.5;entryDx=0;entryDy=0;exitX=0.797;exitY=1.006;exitDx=0;exitDy=0;exitPerimeter=0;fontStyle=1;fontSize=16;" parent="1" source="q9KjPtno_19c9KrTRLna-128" target="q9KjPtno_19c9KrTRLna-305" edge="1">
          <mxGeometry x="1" y="-20" relative="1" as="geometry">
            <mxPoint x="1187" y="-320.01" as="targetPoint" />
            <mxPoint x="610" y="-560" as="sourcePoint" />
            <Array as="points">
              <mxPoint x="552" y="-400" />
            </Array>
            <mxPoint as="offset" />
          </mxGeometry>
        </mxCell>
        <mxCell id="q9KjPtno_19c9KrTRLna-303" value="M" style="edgeStyle=orthogonalEdgeStyle;rounded=0;orthogonalLoop=1;jettySize=auto;html=1;exitX=0.5;exitY=1;exitDx=0;exitDy=0;entryX=0.5;entryY=0;entryDx=0;entryDy=0;shape=link;fontStyle=1;fontSize=16;" parent="1" source="q9KjPtno_19c9KrTRLna-305" target="q9KjPtno_19c9KrTRLna-261" edge="1">
          <mxGeometry x="-0.7505" y="-20" relative="1" as="geometry">
            <Array as="points">
              <mxPoint x="860" y="-290" />
            </Array>
            <mxPoint as="offset" />
          </mxGeometry>
        </mxCell>
        <mxCell id="q9KjPtno_19c9KrTRLna-305" value="Makes" style="shape=rhombus;perimeter=rhombusPerimeter;whiteSpace=wrap;html=1;align=center;fontStyle=1;fontSize=16;fillColor=#cdeb8b;strokeColor=#36393d;" parent="1" vertex="1">
          <mxGeometry x="800" y="-430" width="120" height="60" as="geometry" />
        </mxCell>
        <mxCell id="q9KjPtno_19c9KrTRLna-306" value="N" style="edgeStyle=orthogonalEdgeStyle;rounded=0;orthogonalLoop=1;jettySize=auto;html=1;exitX=0;exitY=0.5;exitDx=0;exitDy=0;entryX=0.5;entryY=0;entryDx=0;entryDy=0;endArrow=none;endFill=0;fontStyle=1;fontSize=16;" parent="1" source="q9KjPtno_19c9KrTRLna-309" target="q9KjPtno_19c9KrTRLna-8" edge="1">
          <mxGeometry x="-0.9025" y="-15" relative="1" as="geometry">
            <Array as="points">
              <mxPoint x="515" y="-65" />
              <mxPoint x="515" y="90" />
            </Array>
            <mxPoint as="offset" />
          </mxGeometry>
        </mxCell>
        <mxCell id="q9KjPtno_19c9KrTRLna-307" style="edgeStyle=orthogonalEdgeStyle;rounded=0;orthogonalLoop=1;jettySize=auto;html=1;entryX=0.5;entryY=1;entryDx=0;entryDy=0;" parent="1" source="q9KjPtno_19c9KrTRLna-309" target="q9KjPtno_19c9KrTRLna-332" edge="1">
          <mxGeometry relative="1" as="geometry" />
        </mxCell>
        <mxCell id="q9KjPtno_19c9KrTRLna-308" style="edgeStyle=orthogonalEdgeStyle;rounded=0;orthogonalLoop=1;jettySize=auto;html=1;" parent="1" source="q9KjPtno_19c9KrTRLna-309" target="q9KjPtno_19c9KrTRLna-333" edge="1">
          <mxGeometry relative="1" as="geometry" />
        </mxCell>
        <mxCell id="q9KjPtno_19c9KrTRLna-309" value="Has" style="shape=rhombus;perimeter=rhombusPerimeter;whiteSpace=wrap;html=1;align=center;fontStyle=1;fontSize=16;fillColor=#cdeb8b;strokeColor=#36393d;" parent="1" vertex="1">
          <mxGeometry x="560" y="-95" width="120" height="60" as="geometry" />
        </mxCell>
        <mxCell id="q9KjPtno_19c9KrTRLna-310" value="M" style="edgeStyle=orthogonalEdgeStyle;rounded=0;orthogonalLoop=1;jettySize=auto;html=1;exitX=0;exitY=0.5;exitDx=0;exitDy=0;endArrow=none;endFill=0;fontStyle=1;fontSize=16;entryX=0.75;entryY=1;entryDx=0;entryDy=0;" parent="1" source="q9KjPtno_19c9KrTRLna-311" target="q9KjPtno_19c9KrTRLna-92" edge="1">
          <mxGeometry x="-1" y="10" relative="1" as="geometry">
            <mxPoint x="1090" y="-810" as="targetPoint" />
            <Array as="points">
              <mxPoint x="1115" y="-600" />
            </Array>
            <mxPoint as="offset" />
          </mxGeometry>
        </mxCell>
        <mxCell id="q9KjPtno_19c9KrTRLna-311" value="Cooks" style="shape=rhombus;perimeter=rhombusPerimeter;whiteSpace=wrap;html=1;align=center;fontStyle=1;fontSize=16;fillColor=#cdeb8b;strokeColor=#36393d;" parent="1" vertex="1">
          <mxGeometry x="1140" y="-630" width="120" height="60" as="geometry" />
        </mxCell>
        <mxCell id="q9KjPtno_19c9KrTRLna-312" value="M" style="edgeStyle=orthogonalEdgeStyle;rounded=0;orthogonalLoop=1;jettySize=auto;html=1;exitX=0.25;exitY=0;exitDx=0;exitDy=0;endArrow=none;endFill=0;shape=link;entryX=1;entryY=0.5;entryDx=0;entryDy=0;fontStyle=1;fontSize=16;" parent="1" source="q9KjPtno_19c9KrTRLna-221" target="q9KjPtno_19c9KrTRLna-314" edge="1">
          <mxGeometry x="1" y="-20" relative="1" as="geometry">
            <mxPoint x="850" y="-660" as="targetPoint" />
            <mxPoint x="1515.5" y="-720" as="sourcePoint" />
            <Array as="points">
              <mxPoint x="1170" y="-540" />
            </Array>
            <mxPoint as="offset" />
          </mxGeometry>
        </mxCell>
        <mxCell id="q9KjPtno_19c9KrTRLna-313" value="1" style="edgeStyle=orthogonalEdgeStyle;rounded=0;orthogonalLoop=1;jettySize=auto;html=1;exitX=0;exitY=0.5;exitDx=0;exitDy=0;endArrow=none;endFill=0;entryX=1;entryY=0.5;entryDx=0;entryDy=0;fontStyle=1;fontSize=16;" parent="1" source="q9KjPtno_19c9KrTRLna-314" target="q9KjPtno_19c9KrTRLna-112" edge="1">
          <mxGeometry x="-1" y="-20" relative="1" as="geometry">
            <mxPoint x="620" y="-670" as="targetPoint" />
            <Array as="points">
              <mxPoint x="770" y="-540" />
              <mxPoint x="770" y="-680" />
            </Array>
            <mxPoint as="offset" />
          </mxGeometry>
        </mxCell>
        <mxCell id="q9KjPtno_19c9KrTRLna-314" value="Orders" style="shape=rhombus;perimeter=rhombusPerimeter;whiteSpace=wrap;html=1;align=center;fontStyle=1;fontSize=16;fillColor=#cdeb8b;strokeColor=#36393d;" parent="1" vertex="1">
          <mxGeometry x="900" y="-570" width="120" height="60" as="geometry" />
        </mxCell>
        <mxCell id="q9KjPtno_19c9KrTRLna-315" value="1" style="edgeStyle=orthogonalEdgeStyle;rounded=0;orthogonalLoop=1;jettySize=auto;html=1;exitX=0;exitY=0.5;exitDx=0;exitDy=0;entryX=1;entryY=0.5;entryDx=0;entryDy=0;shape=link;fontStyle=1;fontSize=16;" parent="1" source="jkEgJ6Tg0IuruKc0SyGw-17" target="jkEgJ6Tg0IuruKc0SyGw-13" edge="1">
          <mxGeometry x="-1" y="-12" relative="1" as="geometry">
            <Array as="points">
              <mxPoint x="360" y="-260" />
              <mxPoint x="360" y="-160" />
            </Array>
            <mxPoint y="-1" as="offset" />
            <mxPoint x="530" y="-260" as="sourcePoint" />
            <mxPoint x="320" y="-260" as="targetPoint" />
          </mxGeometry>
        </mxCell>
        <mxCell id="q9KjPtno_19c9KrTRLna-317" value="M" style="edgeStyle=orthogonalEdgeStyle;rounded=0;orthogonalLoop=1;jettySize=auto;html=1;exitX=0;exitY=0.5;exitDx=0;exitDy=0;endArrow=none;endFill=0;entryX=1;entryY=0.5;entryDx=0;entryDy=0;shape=link;fontStyle=1;fontSize=16;" parent="1" source="q9KjPtno_19c9KrTRLna-261" target="q9KjPtno_19c9KrTRLna-320" edge="1">
          <mxGeometry x="1" y="-20" relative="1" as="geometry">
            <mxPoint x="2022.5" y="-410" as="targetPoint" />
            <mxPoint x="1992.5" y="-340" as="sourcePoint" />
            <Array as="points">
              <mxPoint x="730" y="-270" />
              <mxPoint x="730" y="10" />
            </Array>
            <mxPoint as="offset" />
          </mxGeometry>
        </mxCell>
        <mxCell id="q9KjPtno_19c9KrTRLna-318" value="N" style="edgeStyle=orthogonalEdgeStyle;rounded=0;orthogonalLoop=1;jettySize=auto;html=1;exitX=0;exitY=0.5;exitDx=0;exitDy=0;entryX=0.75;entryY=0;entryDx=0;entryDy=0;endArrow=none;endFill=0;fontStyle=1;fontSize=16;" parent="1" source="q9KjPtno_19c9KrTRLna-320" target="q9KjPtno_19c9KrTRLna-8" edge="1">
          <mxGeometry x="-0.8333" y="-20" relative="1" as="geometry">
            <Array as="points">
              <mxPoint x="545" y="10" />
              <mxPoint x="545" y="90" />
            </Array>
            <mxPoint as="offset" />
          </mxGeometry>
        </mxCell>
        <mxCell id="q9KjPtno_19c9KrTRLna-319" style="edgeStyle=orthogonalEdgeStyle;rounded=0;orthogonalLoop=1;jettySize=auto;html=1;exitX=0.5;exitY=1;exitDx=0;exitDy=0;entryX=0.5;entryY=0;entryDx=0;entryDy=0;" parent="1" source="q9KjPtno_19c9KrTRLna-320" target="q9KjPtno_19c9KrTRLna-334" edge="1">
          <mxGeometry relative="1" as="geometry" />
        </mxCell>
        <mxCell id="q9KjPtno_19c9KrTRLna-320" value="Discounts" style="shape=rhombus;perimeter=rhombusPerimeter;whiteSpace=wrap;html=1;align=center;fontStyle=1;fontSize=16;fillColor=#cdeb8b;strokeColor=#36393d;" parent="1" vertex="1">
          <mxGeometry x="580" y="-20" width="120" height="60" as="geometry" />
        </mxCell>
        <mxCell id="q9KjPtno_19c9KrTRLna-321" value="Can-use" style="shape=rhombus;perimeter=rhombusPerimeter;whiteSpace=wrap;html=1;align=center;fontStyle=1;fontSize=16;fillColor=#cdeb8b;strokeColor=#36393d;" parent="1" vertex="1">
          <mxGeometry x="10" y="-650" width="120" height="60" as="geometry" />
        </mxCell>
        <mxCell id="q9KjPtno_19c9KrTRLna-322" value="M" style="edgeStyle=orthogonalEdgeStyle;rounded=0;orthogonalLoop=1;jettySize=auto;html=1;exitX=0.5;exitY=1;exitDx=0;exitDy=0;shape=link;entryX=1;entryY=0.5;entryDx=0;entryDy=0;fontStyle=1;fontSize=16;" parent="1" source="q9KjPtno_19c9KrTRLna-323" target="jkEgJ6Tg0IuruKc0SyGw-14" edge="1">
          <mxGeometry x="-0.9421" y="-10" relative="1" as="geometry">
            <mxPoint x="1420" y="-270" as="targetPoint" />
            <Array as="points">
              <mxPoint x="1460" y="-270" />
            </Array>
            <mxPoint as="offset" />
          </mxGeometry>
        </mxCell>
        <mxCell id="q9KjPtno_19c9KrTRLna-323" value="Collects" style="shape=rhombus;perimeter=rhombusPerimeter;whiteSpace=wrap;html=1;align=center;fontStyle=1;fontSize=16;fillColor=#cdeb8b;strokeColor=#36393d;" parent="1" vertex="1">
          <mxGeometry x="1400" y="-650" width="120" height="60" as="geometry" />
        </mxCell>
        <mxCell id="q9KjPtno_19c9KrTRLna-324" value="M" style="edgeStyle=orthogonalEdgeStyle;rounded=0;orthogonalLoop=1;jettySize=auto;html=1;entryX=1;entryY=0.5;entryDx=0;entryDy=0;shape=link;fontStyle=1;fontSize=16;exitX=0.5;exitY=1;exitDx=0;exitDy=0;" parent="1" source="q9KjPtno_19c9KrTRLna-325" target="jkEgJ6Tg0IuruKc0SyGw-12" edge="1">
          <mxGeometry x="-0.9261" y="-20" relative="1" as="geometry">
            <Array as="points">
              <mxPoint x="1620" y="-535" />
            </Array>
            <mxPoint x="1600" y="-790" as="sourcePoint" />
            <mxPoint as="offset" />
            <mxPoint x="1620" y="-590" as="targetPoint" />
          </mxGeometry>
        </mxCell>
        <mxCell id="q9KjPtno_19c9KrTRLna-325" value="Delivers" style="shape=rhombus;perimeter=rhombusPerimeter;whiteSpace=wrap;html=1;align=center;fontStyle=1;fontSize=16;fillColor=#cdeb8b;strokeColor=#36393d;" parent="1" vertex="1">
          <mxGeometry x="1560" y="-831" width="120" height="60" as="geometry" />
        </mxCell>
        <mxCell id="q9KjPtno_19c9KrTRLna-326" value="coupon_code" style="ellipse;whiteSpace=wrap;html=1;align=center;" parent="1" vertex="1">
          <mxGeometry x="900" y="-170" width="100" height="40" as="geometry" />
        </mxCell>
        <mxCell id="q9KjPtno_19c9KrTRLna-328" value="description" style="ellipse;whiteSpace=wrap;html=1;align=center;" parent="1" vertex="1">
          <mxGeometry x="960" y="-210" width="100" height="40" as="geometry" />
        </mxCell>
        <mxCell id="q9KjPtno_19c9KrTRLna-329" style="edgeStyle=orthogonalEdgeStyle;rounded=0;orthogonalLoop=1;jettySize=auto;html=1;exitX=0.5;exitY=1;exitDx=0;exitDy=0;" parent="1" edge="1">
          <mxGeometry relative="1" as="geometry">
            <mxPoint x="240" y="-525" as="sourcePoint" />
            <mxPoint x="240" y="-525" as="targetPoint" />
          </mxGeometry>
        </mxCell>
        <mxCell id="q9KjPtno_19c9KrTRLna-330" style="edgeStyle=orthogonalEdgeStyle;rounded=0;orthogonalLoop=1;jettySize=auto;html=1;exitX=0.5;exitY=1;exitDx=0;exitDy=0;" parent="1" edge="1">
          <mxGeometry relative="1" as="geometry">
            <mxPoint x="1438" y="-641" as="sourcePoint" />
            <mxPoint x="1438" y="-641" as="targetPoint" />
          </mxGeometry>
        </mxCell>
        <mxCell id="q9KjPtno_19c9KrTRLna-331" value="available_&lt;span style=&quot;background-color: initial;&quot;&gt;quantity&lt;/span&gt;" style="ellipse;whiteSpace=wrap;html=1;align=center;" parent="1" vertex="1">
          <mxGeometry x="795" y="-100" width="110" height="40" as="geometry" />
        </mxCell>
        <mxCell id="q9KjPtno_19c9KrTRLna-332" value="quantity" style="ellipse;whiteSpace=wrap;html=1;align=center;" parent="1" vertex="1">
          <mxGeometry x="600" y="-210" width="100" height="40" as="geometry" />
        </mxCell>
        <mxCell id="q9KjPtno_19c9KrTRLna-333" value="notes" style="ellipse;whiteSpace=wrap;html=1;align=center;" parent="1" vertex="1">
          <mxGeometry x="490" y="-210" width="100" height="40" as="geometry" />
        </mxCell>
        <mxCell id="q9KjPtno_19c9KrTRLna-334" value="discount_amount" style="ellipse;whiteSpace=wrap;html=1;align=center;" parent="1" vertex="1">
          <mxGeometry x="590" y="55" width="100" height="40" as="geometry" />
        </mxCell>
        <mxCell id="q9KjPtno_19c9KrTRLna-336" value="age" style="ellipse;whiteSpace=wrap;html=1;align=center;dashed=1;" parent="1" vertex="1">
          <mxGeometry x="1330" y="-940" width="100" height="40" as="geometry" />
        </mxCell>
        <mxCell id="q9KjPtno_19c9KrTRLna-337" value="price" style="ellipse;whiteSpace=wrap;html=1;align=center;" parent="1" vertex="1">
          <mxGeometry x="1130" y="-110" width="100" height="40" as="geometry" />
        </mxCell>
        <mxCell id="q9KjPtno_19c9KrTRLna-338" value="quantity_per_month" style="ellipse;whiteSpace=wrap;html=1;align=center;" parent="1" vertex="1">
          <mxGeometry x="1240" y="-110" width="125" height="40" as="geometry" />
        </mxCell>
        <mxCell id="q9KjPtno_19c9KrTRLna-339" value="1" style="edgeStyle=orthogonalEdgeStyle;rounded=0;orthogonalLoop=1;jettySize=auto;html=1;entryX=1;entryY=0.5;entryDx=0;entryDy=0;fontStyle=1;fontSize=16;endArrow=none;endFill=0;exitX=0;exitY=0.5;exitDx=0;exitDy=0;" parent="1" source="jkEgJ6Tg0IuruKc0SyGw-16" target="q9KjPtno_19c9KrTRLna-221" edge="1">
          <mxGeometry x="-1" y="15" relative="1" as="geometry">
            <mxPoint as="offset" />
            <mxPoint x="1300" y="-500" as="sourcePoint" />
            <Array as="points" />
          </mxGeometry>
        </mxCell>
        <mxCell id="q9KjPtno_19c9KrTRLna-340" value="driving_license" style="ellipse;whiteSpace=wrap;html=1;align=center;" parent="1" vertex="1">
          <mxGeometry x="1430" y="-741" width="100" height="40" as="geometry" />
        </mxCell>
        <mxCell id="q9KjPtno_19c9KrTRLna-341" value="first_name" style="ellipse;whiteSpace=wrap;html=1;align=center;" parent="1" vertex="1">
          <mxGeometry x="270" y="-770" width="100" height="40" as="geometry" />
        </mxCell>
        <mxCell id="q9KjPtno_19c9KrTRLna-342" value="last_name" style="ellipse;whiteSpace=wrap;html=1;align=center;" parent="1" vertex="1">
          <mxGeometry x="270" y="-720" width="100" height="40" as="geometry" />
        </mxCell>
        <mxCell id="q9KjPtno_19c9KrTRLna-343" value="apartment_no" style="ellipse;whiteSpace=wrap;html=1;align=center;" parent="1" vertex="1">
          <mxGeometry x="180" y="-810" width="100" height="40" as="geometry" />
        </mxCell>
        <mxCell id="q9KjPtno_19c9KrTRLna-344" value="building_no" style="ellipse;whiteSpace=wrap;html=1;align=center;" parent="1" vertex="1">
          <mxGeometry x="270" y="-840" width="100" height="40" as="geometry" />
        </mxCell>
        <mxCell id="q9KjPtno_19c9KrTRLna-345" value="street" style="ellipse;whiteSpace=wrap;html=1;align=center;" parent="1" vertex="1">
          <mxGeometry x="180" y="-870" width="100" height="40" as="geometry" />
        </mxCell>
        <mxCell id="q9KjPtno_19c9KrTRLna-346" value="city" style="ellipse;whiteSpace=wrap;html=1;align=center;" parent="1" vertex="1">
          <mxGeometry x="270" y="-900" width="100" height="40" as="geometry" />
        </mxCell>
        <mxCell id="q9KjPtno_19c9KrTRLna-347" value="last_name" style="ellipse;whiteSpace=wrap;html=1;align=center;" parent="1" vertex="1">
          <mxGeometry x="1460" y="-1030" width="100" height="40" as="geometry" />
        </mxCell>
        <mxCell id="q9KjPtno_19c9KrTRLna-348" value="first_name" style="ellipse;whiteSpace=wrap;html=1;align=center;" parent="1" vertex="1">
          <mxGeometry x="1460" y="-1080" width="100" height="40" as="geometry" />
        </mxCell>
        <mxCell id="q9KjPtno_19c9KrTRLna-349" value="feedback" style="ellipse;whiteSpace=wrap;html=1;" parent="1" vertex="1">
          <mxGeometry x="1540" y="-335" width="100" height="40" as="geometry" />
        </mxCell>
        <mxCell id="q9KjPtno_19c9KrTRLna-350" value="feedback" style="ellipse;whiteSpace=wrap;html=1;" parent="1" vertex="1">
          <mxGeometry x="1400" y="-170" width="100" height="40" as="geometry" />
        </mxCell>
        <mxCell id="q9KjPtno_19c9KrTRLna-351" value="salary" style="ellipse;whiteSpace=wrap;html=1;align=center;" parent="1" vertex="1">
          <mxGeometry x="1240" y="-1030" width="100" height="40" as="geometry" />
        </mxCell>
        <mxCell id="q9KjPtno_19c9KrTRLna-352" value="hiring_date" style="ellipse;whiteSpace=wrap;html=1;align=center;" parent="1" vertex="1">
          <mxGeometry x="1330" y="-1000" width="100" height="40" as="geometry" />
        </mxCell>
        <mxCell id="q9KjPtno_19c9KrTRLna-353" value="experience_&lt;span style=&quot;background-color: initial;&quot;&gt;years&lt;/span&gt;" style="ellipse;whiteSpace=wrap;html=1;align=center;" parent="1" vertex="1">
          <mxGeometry x="1460" y="-970" width="110" height="40" as="geometry" />
        </mxCell>
        <mxCell id="q9KjPtno_19c9KrTRLna-354" value="role" style="ellipse;whiteSpace=wrap;html=1;align=center;" parent="1" vertex="1">
          <mxGeometry x="1460" y="-910" width="100" height="40" as="geometry" />
        </mxCell>
        <mxCell id="q9KjPtno_19c9KrTRLna-355" value="orders_count" style="ellipse;whiteSpace=wrap;html=1;align=center;dashed=1;" parent="1" vertex="1">
          <mxGeometry x="860" y="-676" width="100" height="40" as="geometry" />
        </mxCell>
        <mxCell id="q9KjPtno_19c9KrTRLna-356" value="cuisines" style="ellipse;shape=doubleEllipse;margin=3;whiteSpace=wrap;html=1;align=center;" parent="1" vertex="1">
          <mxGeometry x="945" y="-706" width="100" height="40" as="geometry" />
        </mxCell>
        <mxCell id="q9KjPtno_19c9KrTRLna-357" value="feedbacks_received" style="ellipse;shape=doubleEllipse;margin=3;whiteSpace=wrap;html=1;align=center;dashed=1;" parent="1" vertex="1">
          <mxGeometry x="1166.5" y="-690" width="125" height="40" as="geometry" />
        </mxCell>
        <mxCell id="q9KjPtno_19c9KrTRLna-358" value="transaction_count" style="ellipse;whiteSpace=wrap;html=1;align=center;dashed=1;" parent="1" vertex="1">
          <mxGeometry x="1170" y="-741" width="110" height="40" as="geometry" />
        </mxCell>
        <mxCell id="q9KjPtno_19c9KrTRLna-359" value="feedbacks_received" style="ellipse;shape=doubleEllipse;margin=3;whiteSpace=wrap;html=1;align=center;dashed=1;" parent="1" vertex="1">
          <mxGeometry x="1483" y="-700" width="125" height="40" as="geometry" />
        </mxCell>
        <mxCell id="q9KjPtno_19c9KrTRLna-360" value="delivery_count" style="ellipse;whiteSpace=wrap;html=1;align=center;dashed=1;" parent="1" vertex="1">
          <mxGeometry x="1370" y="-701" width="100" height="40" as="geometry" />
        </mxCell>
        <mxCell id="NOl-cBaydxtbLlcyww54-1" value="role" style="text;html=1;align=center;verticalAlign=middle;whiteSpace=wrap;rounded=0;" parent="1" vertex="1">
          <mxGeometry x="1095" y="-943.5" width="60" height="30" as="geometry" />
        </mxCell>
        <mxCell id="jkEgJ6Tg0IuruKc0SyGw-2" value="&lt;span style=&quot;border-bottom: 1px dotted&quot;&gt;table_no&lt;/span&gt;" style="ellipse;whiteSpace=wrap;html=1;align=center;" parent="1" vertex="1">
          <mxGeometry x="120" y="-315" width="100" height="40" as="geometry" />
        </mxCell>
        <mxCell id="pYCSRxTtbDhpaxBL-4P_-11" style="edgeStyle=orthogonalEdgeStyle;rounded=0;orthogonalLoop=1;jettySize=auto;html=1;exitX=0;exitY=0.5;exitDx=0;exitDy=0;entryX=0;entryY=0.5;entryDx=0;entryDy=0;" parent="1" source="jkEgJ6Tg0IuruKc0SyGw-5" target="jkEgJ6Tg0IuruKc0SyGw-2" edge="1">
          <mxGeometry relative="1" as="geometry">
            <Array as="points">
              <mxPoint x="100" y="-360" />
              <mxPoint x="100" y="-295" />
            </Array>
          </mxGeometry>
        </mxCell>
        <mxCell id="pYCSRxTtbDhpaxBL-4P_-12" style="edgeStyle=orthogonalEdgeStyle;rounded=0;orthogonalLoop=1;jettySize=auto;html=1;exitX=0;exitY=0.5;exitDx=0;exitDy=0;entryX=0;entryY=0.5;entryDx=0;entryDy=0;" parent="1" source="jkEgJ6Tg0IuruKc0SyGw-5" target="q9KjPtno_19c9KrTRLna-142" edge="1">
          <mxGeometry relative="1" as="geometry">
            <Array as="points">
              <mxPoint x="100" y="-360" />
              <mxPoint x="100" y="-245" />
            </Array>
          </mxGeometry>
        </mxCell>
        <mxCell id="jkEgJ6Tg0IuruKc0SyGw-5" value="Table" style="shape=ext;margin=3;double=1;whiteSpace=wrap;html=1;align=center;fillColor=#cce5ff;strokeColor=#36393d;fontSize=18;fontStyle=1" parent="1" vertex="1">
          <mxGeometry x="110" y="-380" width="100" height="40" as="geometry" />
        </mxCell>
        <mxCell id="jkEgJ6Tg0IuruKc0SyGw-7" value="Inside" style="shape=rhombus;double=1;perimeter=rhombusPerimeter;whiteSpace=wrap;html=1;align=center;fontSize=16;fontStyle=1;fillColor=#cdeb8b;strokeColor=#36393d;" parent="1" vertex="1">
          <mxGeometry x="100" y="-495" width="120" height="60" as="geometry" />
        </mxCell>
        <mxCell id="jkEgJ6Tg0IuruKc0SyGw-8" value="telephone" style="ellipse;shape=doubleEllipse;margin=3;whiteSpace=wrap;html=1;align=center;" parent="1" vertex="1">
          <mxGeometry x="530" y="-560" width="100" height="40" as="geometry" />
        </mxCell>
        <mxCell id="jkEgJ6Tg0IuruKc0SyGw-10" value="telephone" style="ellipse;shape=doubleEllipse;margin=3;whiteSpace=wrap;html=1;align=center;" parent="1" vertex="1">
          <mxGeometry x="1508" y="70" width="100" height="40" as="geometry" />
        </mxCell>
        <mxCell id="jkEgJ6Tg0IuruKc0SyGw-43" value="1" style="edgeStyle=orthogonalEdgeStyle;rounded=0;orthogonalLoop=1;jettySize=auto;html=1;exitX=0;exitY=0.5;exitDx=0;exitDy=0;entryX=1;entryY=0.5;entryDx=0;entryDy=0;shape=link;fontSize=16;fontStyle=1" parent="1" source="jkEgJ6Tg0IuruKc0SyGw-12" target="jkEgJ6Tg0IuruKc0SyGw-18" edge="1">
          <mxGeometry x="0.9636" y="-15" relative="1" as="geometry">
            <mxPoint as="offset" />
          </mxGeometry>
        </mxCell>
        <mxCell id="jkEgJ6Tg0IuruKc0SyGw-49" style="edgeStyle=orthogonalEdgeStyle;rounded=0;orthogonalLoop=1;jettySize=auto;html=1;exitX=0.25;exitY=1;exitDx=0;exitDy=0;entryX=0;entryY=0.5;entryDx=0;entryDy=0;" parent="1" source="jkEgJ6Tg0IuruKc0SyGw-12" target="q9KjPtno_19c9KrTRLna-278" edge="1">
          <mxGeometry relative="1" as="geometry" />
        </mxCell>
        <mxCell id="jkEgJ6Tg0IuruKc0SyGw-51" style="edgeStyle=orthogonalEdgeStyle;rounded=0;orthogonalLoop=1;jettySize=auto;html=1;exitX=0.25;exitY=1;exitDx=0;exitDy=0;entryX=0;entryY=0.5;entryDx=0;entryDy=0;" parent="1" source="jkEgJ6Tg0IuruKc0SyGw-12" target="q9KjPtno_19c9KrTRLna-277" edge="1">
          <mxGeometry relative="1" as="geometry" />
        </mxCell>
        <mxCell id="jkEgJ6Tg0IuruKc0SyGw-52" style="edgeStyle=orthogonalEdgeStyle;rounded=0;orthogonalLoop=1;jettySize=auto;html=1;exitX=0.25;exitY=1;exitDx=0;exitDy=0;entryX=0;entryY=0.5;entryDx=0;entryDy=0;" parent="1" source="jkEgJ6Tg0IuruKc0SyGw-12" target="q9KjPtno_19c9KrTRLna-276" edge="1">
          <mxGeometry relative="1" as="geometry" />
        </mxCell>
        <mxCell id="jkEgJ6Tg0IuruKc0SyGw-53" style="edgeStyle=orthogonalEdgeStyle;rounded=0;orthogonalLoop=1;jettySize=auto;html=1;exitX=0.25;exitY=1;exitDx=0;exitDy=0;entryX=0;entryY=0.5;entryDx=0;entryDy=0;" parent="1" source="jkEgJ6Tg0IuruKc0SyGw-12" target="q9KjPtno_19c9KrTRLna-274" edge="1">
          <mxGeometry relative="1" as="geometry" />
        </mxCell>
        <mxCell id="jkEgJ6Tg0IuruKc0SyGw-54" style="edgeStyle=orthogonalEdgeStyle;rounded=0;orthogonalLoop=1;jettySize=auto;html=1;exitX=0.25;exitY=1;exitDx=0;exitDy=0;entryX=0;entryY=0.5;entryDx=0;entryDy=0;" parent="1" source="jkEgJ6Tg0IuruKc0SyGw-12" target="q9KjPtno_19c9KrTRLna-275" edge="1">
          <mxGeometry relative="1" as="geometry" />
        </mxCell>
        <mxCell id="jkEgJ6Tg0IuruKc0SyGw-55" style="edgeStyle=orthogonalEdgeStyle;rounded=0;orthogonalLoop=1;jettySize=auto;html=1;exitX=0.25;exitY=1;exitDx=0;exitDy=0;entryX=0;entryY=0.5;entryDx=0;entryDy=0;" parent="1" source="jkEgJ6Tg0IuruKc0SyGw-12" target="q9KjPtno_19c9KrTRLna-349" edge="1">
          <mxGeometry relative="1" as="geometry" />
        </mxCell>
        <mxCell id="jkEgJ6Tg0IuruKc0SyGw-12" value="Delivery" style="shape=ext;margin=3;double=1;whiteSpace=wrap;html=1;align=center;fillColor=#cce5ff;strokeColor=#36393d;fontSize=18;fontStyle=1" parent="1" vertex="1">
          <mxGeometry x="1490" y="-555" width="100" height="40" as="geometry" />
        </mxCell>
        <mxCell id="jkEgJ6Tg0IuruKc0SyGw-13" value="&lt;span style=&quot;font-size: 15px;&quot;&gt;Reservation&lt;/span&gt;" style="shape=ext;margin=3;double=1;whiteSpace=wrap;html=1;align=center;fillColor=#cce5ff;strokeColor=#36393d;fontSize=15;fontStyle=1" parent="1" vertex="1">
          <mxGeometry x="232.5" y="-180" width="100" height="40" as="geometry" />
        </mxCell>
        <mxCell id="jkEgJ6Tg0IuruKc0SyGw-31" style="edgeStyle=orthogonalEdgeStyle;rounded=0;orthogonalLoop=1;jettySize=auto;html=1;exitX=0.5;exitY=1;exitDx=0;exitDy=0;entryX=0.5;entryY=0;entryDx=0;entryDy=0;" parent="1" source="jkEgJ6Tg0IuruKc0SyGw-14" target="q9KjPtno_19c9KrTRLna-241" edge="1">
          <mxGeometry relative="1" as="geometry">
            <Array as="points">
              <mxPoint x="1390" y="-250" />
            </Array>
          </mxGeometry>
        </mxCell>
        <mxCell id="jkEgJ6Tg0IuruKc0SyGw-32" style="edgeStyle=orthogonalEdgeStyle;rounded=0;orthogonalLoop=1;jettySize=auto;html=1;exitX=0.5;exitY=1;exitDx=0;exitDy=0;entryX=0.5;entryY=0;entryDx=0;entryDy=0;" parent="1" source="jkEgJ6Tg0IuruKc0SyGw-14" target="q9KjPtno_19c9KrTRLna-350" edge="1">
          <mxGeometry relative="1" as="geometry">
            <Array as="points">
              <mxPoint x="1390" y="-250" />
              <mxPoint x="1390" y="-230" />
              <mxPoint x="1450" y="-230" />
            </Array>
          </mxGeometry>
        </mxCell>
        <mxCell id="jkEgJ6Tg0IuruKc0SyGw-33" style="edgeStyle=orthogonalEdgeStyle;rounded=0;orthogonalLoop=1;jettySize=auto;html=1;exitX=0.5;exitY=1;exitDx=0;exitDy=0;entryX=0.5;entryY=0;entryDx=0;entryDy=0;" parent="1" source="jkEgJ6Tg0IuruKc0SyGw-14" target="jkEgJ6Tg0IuruKc0SyGw-79" edge="1">
          <mxGeometry relative="1" as="geometry">
            <mxPoint x="1325" y="-210" as="targetPoint" />
            <Array as="points">
              <mxPoint x="1390" y="-250" />
              <mxPoint x="1390" y="-230" />
              <mxPoint x="1330" y="-230" />
            </Array>
          </mxGeometry>
        </mxCell>
        <mxCell id="B97XmydA9J7okkcv8C4M-5" style="edgeStyle=orthogonalEdgeStyle;rounded=0;orthogonalLoop=1;jettySize=auto;html=1;exitX=0.5;exitY=1;exitDx=0;exitDy=0;entryX=0.5;entryY=0;entryDx=0;entryDy=0;" parent="1" source="jkEgJ6Tg0IuruKc0SyGw-14" target="pYCSRxTtbDhpaxBL-4P_-3" edge="1">
          <mxGeometry relative="1" as="geometry" />
        </mxCell>
        <mxCell id="jkEgJ6Tg0IuruKc0SyGw-14" value="&lt;span style=&quot;font-size: 15px;&quot;&gt;Transaction&lt;/span&gt;" style="shape=ext;margin=3;double=1;whiteSpace=wrap;html=1;align=center;fillColor=#cce5ff;strokeColor=#36393d;fontSize=15;fontStyle=1" parent="1" vertex="1">
          <mxGeometry x="1340" y="-290" width="100" height="40" as="geometry" />
        </mxCell>
        <mxCell id="jkEgJ6Tg0IuruKc0SyGw-16" value="&lt;span style=&quot;font-size: 15px;&quot;&gt;Fulfilled&lt;/span&gt;&lt;span style=&quot;font-size: 12px; font-weight: 400;&quot;&gt;_&lt;/span&gt;&lt;span style=&quot;font-size: 15px;&quot;&gt;by&lt;/span&gt;" style="shape=rhombus;double=1;perimeter=rhombusPerimeter;whiteSpace=wrap;html=1;align=center;fillColor=#cdeb8b;strokeColor=#36393d;fontSize=15;fontStyle=1" parent="1" vertex="1">
          <mxGeometry x="1330" y="-495" width="120" height="60" as="geometry" />
        </mxCell>
        <mxCell id="jkEgJ6Tg0IuruKc0SyGw-17" value="&lt;span style=&quot;font-size: 12px;&quot;&gt;Associated&lt;/span&gt;&lt;span style=&quot;font-weight: 400;&quot;&gt;_&lt;/span&gt;&lt;span style=&quot;font-size: 12px;&quot;&gt;with&lt;/span&gt;" style="shape=rhombus;double=1;perimeter=rhombusPerimeter;whiteSpace=wrap;html=1;align=center;fillColor=#cdeb8b;strokeColor=#36393d;fontSize=12;fontStyle=1" parent="1" vertex="1">
          <mxGeometry x="530" y="-290" width="120" height="60" as="geometry" />
        </mxCell>
        <mxCell id="jkEgJ6Tg0IuruKc0SyGw-18" value="&lt;span style=&quot;font-size: 16px;&quot;&gt;Needs&lt;/span&gt;" style="shape=rhombus;double=1;perimeter=rhombusPerimeter;whiteSpace=wrap;html=1;align=center;fillColor=#cdeb8b;strokeColor=#36393d;fontSize=18;fontStyle=1" parent="1" vertex="1">
          <mxGeometry x="1280" y="-565" width="120" height="60" as="geometry" />
        </mxCell>
        <mxCell id="jkEgJ6Tg0IuruKc0SyGw-19" value="total_amount" style="ellipse;whiteSpace=wrap;html=1;align=center;dashed=1;" parent="1" vertex="1">
          <mxGeometry x="1270" y="-360" width="100" height="40" as="geometry" />
        </mxCell>
        <mxCell id="jkEgJ6Tg0IuruKc0SyGw-79" value="date_and_time" style="ellipse;whiteSpace=wrap;html=1;" parent="1" vertex="1">
          <mxGeometry x="1280" y="-170" width="100" height="40" as="geometry" />
        </mxCell>
        <mxCell id="pYCSRxTtbDhpaxBL-4P_-3" value="amount_with_discount" style="ellipse;whiteSpace=wrap;html=1;align=center;dashed=1;" parent="1" vertex="1">
          <mxGeometry x="1465" y="-210" width="130" height="40" as="geometry" />
        </mxCell>
        <mxCell id="pYCSRxTtbDhpaxBL-4P_-6" value="&lt;span&gt;quantity&lt;/span&gt;" style="ellipse;whiteSpace=wrap;html=1;fontStyle=0" parent="1" vertex="1">
          <mxGeometry x="267.5" y="-430" width="100" height="40" as="geometry" />
        </mxCell>
        <mxCell id="B97XmydA9J7okkcv8C4M-1" value="end_date" style="ellipse;whiteSpace=wrap;html=1;align=center;" parent="1" vertex="1">
          <mxGeometry x="1200" y="-210" width="100" height="40" as="geometry" />
        </mxCell>
      </root>
    </mxGraphModel>
  </diagram>
</mxfile>
